<svg version="1.1" xmlns="http://www.w3.org/2000/svg" viewBox="0 0 4945.060415860642 2368.6922804587416" width="9890.120831721284" height="4737.384560917483">
  <!-- svg-source:excalidraw -->
  
  <defs>
    <style class="style-fonts">
      @font-face {
        font-family: "Virgil";
        src: url("https://excalidraw.com/Virgil.woff2");
      }
      @font-face {
        font-family: "Cascadia";
        src: url("https://excalidraw.com/Cascadia.woff2");
      }
      @font-face {
        font-family: "Assistant";
        src: url("https://excalidraw.com/Assistant-Regular.woff2");
      }
    </style>
    
  </defs>
  <rect x="0" y="0" width="4945.060415860642" height="2368.6922804587416" fill="#ffffff"></rect><g stroke-opacity="0.9" fill-opacity="0.9" stroke-linecap="round" transform="translate(4122.372525125407 790.233449637456) rotate(0 406.3439453676174 702.0776579025676)"><path d="M32 0 C294.17 -0.37, 556.42 1.75, 780.69 0 C802.54 -0.78, 811.01 11.64, 812.69 32 C810.85 477.56, 811.65 924.94, 812.69 1372.16 C814.94 1395.75, 798.81 1405.63, 780.69 1404.16 C612.66 1408.06, 443.38 1408.96, 32 1404.16 C9.62 1401.27, 2.66 1396.1, 0 1372.16 C-7.27 871.05, -6.37 367.16, 0 32 C2.81 7.08, 9.55 0.92, 32 0" stroke="none" stroke-width="0" fill="#fefffe"></path><path d="M32 0 C207.67 2, 383.17 1.62, 780.69 0 M780.69 0 C800.66 1.9, 812.18 10.51, 812.69 32 M812.69 32 C817.47 562.97, 817.34 1095.2, 812.69 1372.16 M812.69 1372.16 C812.58 1394.5, 801.89 1403.57, 780.69 1404.16 M780.69 1404.16 C618.77 1406.04, 457.89 1407.03, 32 1404.16 M32 1404.16 C10.16 1405.99, -0.59 1393.35, 0 1372.16 M0 1372.16 C-2.84 1097.36, -2.67 822.81, 0 32 M0 32 C1.4 9.54, 9.41 1.78, 32 0" stroke="#1971c2" stroke-width="4.5" fill="none" stroke-dasharray="1.5 10"></path></g><g stroke-opacity="0.9" fill-opacity="0.9" stroke-linecap="round" transform="translate(1909.0572110006797 1652.1715790474218) rotate(0 107.09051898675261 97.76107085026456)"><path d="M118.55 0.49 C130.81 0.15, 144.4 5.53, 155.67 10.99 C166.95 16.45, 177.45 24.6, 186.19 33.26 C194.93 41.93, 203.5 52.05, 208.13 62.97 C212.77 73.89, 214.1 87.1, 213.98 98.77 C213.87 110.44, 212.28 121.89, 207.44 132.97 C202.6 144.05, 193.86 156.51, 184.96 165.26 C176.05 174.01, 165.49 180.48, 154.01 185.46 C142.54 190.45, 129.01 194.04, 116.12 195.17 C103.23 196.3, 89.09 195.43, 76.68 192.24 C64.27 189.05, 51.89 183.5, 41.66 176.04 C31.43 168.59, 22.11 157.86, 15.32 147.5 C8.54 137.14, 3.05 125.4, 0.97 113.89 C-1.1 102.38, 0.14 89.96, 2.89 78.44 C5.64 66.93, 10.67 54.79, 17.47 44.81 C24.26 34.82, 33.47 25.41, 43.66 18.52 C53.85 11.63, 64.85 6.48, 78.61 3.47 C92.37 0.47, 117.33 0.15, 126.21 0.48 C135.1 0.82, 132.2 3.75, 131.89 5.47 M158.06 12.87 C169.56 16.91, 180.95 26.51, 189.45 35.51 C197.95 44.5, 204.88 55.7, 209.05 66.84 C213.23 77.99, 215.1 90.96, 214.52 102.39 C213.94 113.83, 210.87 124.62, 205.57 135.46 C200.28 146.3, 191.94 158.92, 182.75 167.42 C173.55 175.91, 162.21 181.73, 150.4 186.44 C138.6 191.15, 124.44 194.79, 111.92 195.67 C99.41 196.55, 87.45 195.26, 75.31 191.7 C63.18 188.15, 49.52 182.02, 39.1 174.34 C28.69 166.66, 19.34 155.83, 12.81 145.63 C6.28 135.44, 1.45 124.66, -0.09 113.16 C-1.63 101.66, 0.39 88.34, 3.57 76.64 C6.75 64.94, 11.98 52.64, 18.99 42.95 C26 33.27, 35.44 25.12, 45.62 18.53 C55.79 11.95, 67.7 6.2, 80.05 3.44 C92.39 0.68, 106.52 0.7, 119.67 1.96 C132.83 3.21, 152.95 9.12, 158.98 10.95 C165.02 12.79, 156.61 11.21, 155.87 12.99" stroke="none" stroke-width="0" fill="#fefffe"></path><path d="M156.43 10.11 C167.79 14, 177.71 24.01, 186.29 32.96 C194.87 41.92, 203.37 52.69, 207.91 63.86 C212.45 75.02, 213.8 88.29, 213.55 99.95 C213.31 111.62, 211.15 123.12, 206.42 133.84 C201.69 144.56, 194.04 155.59, 185.18 164.28 C176.31 172.97, 164.97 180.65, 153.23 185.96 C141.49 191.27, 127.71 195.11, 114.75 196.12 C101.79 197.13, 87.85 195.51, 75.47 192.04 C63.09 188.57, 50.58 182.51, 40.46 175.31 C30.34 168.11, 21.3 158.94, 14.74 148.84 C8.18 138.73, 3.06 126.38, 1.12 114.67 C-0.82 102.97, 0.44 90.11, 3.08 78.59 C5.72 67.07, 10.24 55.62, 16.95 45.56 C23.65 35.49, 32.86 25.08, 43.32 18.21 C53.78 11.33, 67.18 7.11, 79.71 4.3 C92.23 1.48, 103.83 -0.75, 118.48 1.33 C133.12 3.41, 157.64 12.55, 167.56 16.76 C177.48 20.97, 179.12 25.12, 177.99 26.59 M76.85 5.33 C88.19 0.96, 101.44 0.34, 113.87 1.14 C126.3 1.95, 139.62 5.34, 151.44 10.17 C163.26 15.01, 175.53 21.55, 184.79 30.16 C194.06 38.76, 202.1 51.03, 207.03 61.8 C211.96 72.56, 214.43 83.17, 214.36 94.75 C214.29 106.33, 210.83 120.32, 206.61 131.28 C202.38 142.24, 197.24 151.53, 189.03 160.51 C180.81 169.5, 168.84 179.31, 157.31 185.21 C145.79 191.11, 132.86 194.86, 119.87 195.9 C106.89 196.94, 91.74 194.63, 79.41 191.45 C67.08 188.27, 56.13 183.7, 45.89 176.81 C35.64 169.92, 25.27 159.92, 17.92 150.12 C10.58 140.33, 4.45 129.33, 1.83 118.03 C-0.79 106.73, 0.12 93.84, 2.2 82.32 C4.29 70.81, 8.15 59.25, 14.34 48.93 C20.53 38.6, 28.89 27.73, 39.32 20.37 C49.76 13.01, 70.86 7.26, 76.93 4.77 C83.01 2.28, 75.62 3.96, 75.78 5.44" stroke="#f08c00" stroke-width="4" fill="none"></path></g><g stroke-opacity="0.9" fill-opacity="0.9" transform="translate(1982.883327413163 1737.305133763406) rotate(0 33.03997039794922 12.5)"><text x="33.03997039794922" y="17.52" font-family="Virgil, Segoe UI Emoji" font-size="20px" fill="#f08c00" text-anchor="middle" style="white-space: pre;" direction="ltr" dominant-baseline="alphabetic">Staker</text></g><g stroke-opacity="0.9" fill-opacity="0.9" stroke-linecap="round" transform="translate(2462.723971329281 1657.6091901139084) rotate(0 211.5851232047121 111.37141600520226)"><path d="M32 0 C148.39 -0.53, 262.02 0.26, 391.17 0 C409.96 2.49, 426.16 9.51, 423.17 32 C420.02 74.42, 426.94 121.44, 423.17 190.74 C422.4 212.58, 412.46 222.2, 391.17 222.74 C257.69 223.93, 123.57 223.95, 32 222.74 C13.83 221.07, 3.24 209.48, 0 190.74 C1.89 140.49, -1.6 83.18, 0 32 C2.3 12.99, 9.55 3.59, 32 0" stroke="none" stroke-width="0" fill="#fefffe"></path><path d="M32 0 C174.34 0.48, 314.63 1.54, 391.17 0 M32 0 C157.06 1.4, 280.68 1.34, 391.17 0 M391.17 0 C411.95 -0.69, 423.43 8.99, 423.17 32 M391.17 0 C414.59 -2.24, 424.57 8.39, 423.17 32 M423.17 32 C421.35 84.85, 424.24 136.98, 423.17 190.74 M423.17 32 C422.93 82.84, 424.61 132.63, 423.17 190.74 M423.17 190.74 C424.75 211.65, 411.6 224.6, 391.17 222.74 M423.17 190.74 C423.71 209.96, 413.35 221.36, 391.17 222.74 M391.17 222.74 C319.64 224.22, 247.23 223.78, 32 222.74 M391.17 222.74 C262.76 223.12, 133.62 222.18, 32 222.74 M32 222.74 C9.09 223.08, 1.6 210.11, 0 190.74 M32 222.74 C11.21 224.18, 0.79 213.65, 0 190.74 M0 190.74 C0.61 151.19, -0.3 109.43, 0 32 M0 190.74 C-1.15 141.94, -1.73 91.65, 0 32 M0 32 C1.93 11.22, 10.21 -1.04, 32 0 M0 32 C-1.17 10.64, 9.75 0.48, 32 0" stroke="#1e1e1e" stroke-width="4" fill="none"></path></g><g stroke-opacity="0.9" fill-opacity="0.9" transform="translate(2501.9292117214927 1743.9806061191107) rotate(0 172.3798828125 25)"><text x="172.3798828125" y="17.52" font-family="Virgil, Segoe UI Emoji" font-size="20px" fill="#1e1e1e" text-anchor="middle" style="white-space: pre;" direction="ltr" dominant-baseline="alphabetic">contract FundManager @ Ethereum</text><text x="172.3798828125" y="42.519999999999996" font-family="Virgil, Segoe UI Emoji" font-size="20px" fill="#1e1e1e" text-anchor="middle" style="white-space: pre;" direction="ltr" dominant-baseline="alphabetic">+ deposit()</text></g><g stroke-opacity="0.9" fill-opacity="0.9" stroke-linecap="round" transform="translate(4413.26217727495 1900.8976102739534) rotate(0 193.69770388325287 111.09920299557598)"><path d="M32 0 C133.79 5.19, 232.28 3.78, 355.4 0 C378.97 1.24, 389.86 9.02, 387.4 32 C391.49 67.52, 388.94 107.99, 387.4 190.2 C389.3 212.41, 375.62 224.01, 355.4 222.2 C287.78 225.54, 217.5 224.83, 32 222.2 C10.62 220.76, 0.74 212.26, 0 190.2 C-0.39 134.72, 0.86 76.98, 0 32 C2.49 13.66, 9.51 -0.69, 32 0" stroke="none" stroke-width="0" fill="#fefffe"></path><path d="M32 0 C114.88 0.8, 197.54 1.88, 355.4 0 M355.4 0 C374.78 1.21, 385.42 11.27, 387.4 32 M387.4 32 C388.9 72.38, 388.58 109.12, 387.4 190.2 M387.4 190.2 C388.07 210.82, 375.17 223.36, 355.4 222.2 M355.4 222.2 C228.82 223.34, 104.12 224.29, 32 222.2 M32 222.2 C8.83 222.93, -1.2 209.56, 0 190.2 M0 190.2 C-2.38 158.86, -3.07 126.28, 0 32 M0 32 C0.26 10.48, 11.96 1.85, 32 0" stroke="#1971c2" stroke-width="4.5" fill="none" stroke-dasharray="1.5 10"></path></g><g stroke-opacity="0.9" fill-opacity="0.9" transform="translate(4471.419994683594 1999.4968132695294) rotate(0 135.53988647460938 12.5)"><text x="135.53988647460938" y="17.52" font-family="Virgil, Segoe UI Emoji" font-size="20px" fill="#1971c2" text-anchor="middle" style="white-space: pre;" direction="ltr" dominant-baseline="alphabetic">eigenlayer/StrategyManager</text></g><g mask="url(#mask-p84ey2TLFzi0pBIsXzaoA)" stroke-linecap="round"><g stroke-opacity="0.9" fill-opacity="0.9" transform="translate(2137.026052424999 1748.2394086368495) rotate(0 152.63194533693968 -2.1769527847711743)"><path d="M1.09 -1.17 C52.06 -1.92, 255.23 -4.9, 305.99 -5.54 M0.2 0.83 C51.06 0.27, 254.62 -3.81, 305.43 -4.63" stroke="#1e1e1e" stroke-width="4" fill="none"></path></g><g stroke-opacity="0.9" fill-opacity="0.9" transform="translate(2137.026052424999 1748.2394086368495) rotate(0 152.63194533693968 -2.1769527847711743)"><path d="M282.09 4.35 C287.52 2.54, 294.79 -0.87, 305.43 -4.63 M282.09 4.35 C287.89 3.27, 293.4 0.27, 305.43 -4.63" stroke="#1e1e1e" stroke-width="4" fill="none"></path></g><g stroke-opacity="0.9" fill-opacity="0.9" transform="translate(2137.026052424999 1748.2394086368495) rotate(0 152.63194533693968 -2.1769527847711743)"><path d="M281.78 -12.75 C287.16 -9.21, 294.53 -7.27, 305.43 -4.63 M281.78 -12.75 C287.78 -9.68, 293.35 -8.53, 305.43 -4.63" stroke="#1e1e1e" stroke-width="4" fill="none"></path></g></g><mask id="mask-p84ey2TLFzi0pBIsXzaoA"><rect x="0" y="0" fill="#fff" width="2542.289943098878" height="1852.5933142063918"></rect><rect x="2202.218079243872" y="1733.562455852078" fill="#000" width="174.8798370361328" height="25" opacity="1"></rect></mask><g stroke-opacity="0.9" fill-opacity="0.9" transform="translate(2202.218079243872 1733.5624558520785) rotate(0 87.90356715282405 12.323248396013014)"><text x="87.4399185180664" y="17.52" font-family="Virgil, Segoe UI Emoji" font-size="20px" fill="#1e1e1e" text-anchor="middle" style="white-space: pre;" direction="ltr" dominant-baseline="alphabetic">0. deposit(cbETH)</text></g><g mask="url(#mask-grJYy48ixE4Fulc1wa8Zd)" stroke-linecap="round"><g stroke-opacity="0.9" fill-opacity="0.9" transform="translate(2449.769703575943 1830.264110254373) rotate(0 -167.93227138050042 -2.8103708408157217)"><path d="M-0.98 0.7 C-56.84 -0.37, -280.02 -4.86, -335.71 -5.73 M0.71 0.03 C-55.24 -0.92, -280.55 -3.2, -336.57 -4.25" stroke="#1e1e1e" stroke-width="4" fill="none"></path></g><g stroke-opacity="0.9" fill-opacity="0.9" transform="translate(2449.769703575943 1830.264110254373) rotate(0 -167.93227138050042 -2.8103708408157217)"><path d="M-312.96 -12.48 C-317.71 -10.33, -325.03 -7.22, -336.57 -4.25 M-312.96 -12.48 C-323.01 -9.21, -330.68 -7.13, -336.57 -4.25" stroke="#1e1e1e" stroke-width="4" fill="none"></path></g><g stroke-opacity="0.9" fill-opacity="0.9" transform="translate(2449.769703575943 1830.264110254373) rotate(0 -167.93227138050042 -2.8103708408157217)"><path d="M-313.2 4.62 C-317.99 2.45, -325.26 1.24, -336.57 -4.25 M-313.2 4.62 C-323.17 1.18, -330.75 -3.45, -336.57 -4.25" stroke="#1e1e1e" stroke-width="4" fill="none"></path></g></g><mask id="mask-grJYy48ixE4Fulc1wa8Zd"><rect x="0" y="0" fill="#fff" width="2885.6342463369438" height="1935.8848519360045"></rect><rect x="2183.6475060479825" y="1802.4537394135573" fill="#000" width="196.37985229492188" height="50" opacity="1"></rect></mask><g stroke-opacity="0.9" fill-opacity="0.9" transform="translate(2183.6475060479825 1802.4537394135577) rotate(0 98.19005433280017 25.29621236659591)"><text x="98.18992614746094" y="17.52" font-family="Virgil, Segoe UI Emoji" font-size="20px" fill="#1e1e1e" text-anchor="middle" style="white-space: pre;" direction="ltr" dominant-baseline="alphabetic">16. transfer(USDC) </text><text x="98.18992614746094" y="42.519999999999996" font-family="Virgil, Segoe UI Emoji" font-size="20px" fill="#1e1e1e" text-anchor="middle" style="white-space: pre;" direction="ltr" dominant-baseline="alphabetic">rewards</text></g><g stroke-opacity="0.9" fill-opacity="0.9" stroke-linecap="round" transform="translate(4156.57902432927 854.9579677663278) rotate(0 137.79941795164268 81.95802369739886)"><path d="M32 0 C99.39 -1.93, 173.14 -2.14, 243.6 0 C264.08 -2.82, 276.33 13.65, 275.6 32 C272.13 66.96, 272.09 106.77, 275.6 131.92 C277.91 154.01, 266.97 163.04, 243.6 163.92 C182.51 158.13, 121.25 162.09, 32 163.92 C8.43 160.61, -1.48 156.59, 0 131.92 C-1.87 97.74, -2.21 58.34, 0 32 C1.2 9.17, 10.15 -3.53, 32 0" stroke="none" stroke-width="0" fill="#fefffe"></path><path d="M32 0 C99.88 -0.97, 163.55 -2.6, 243.6 0 M32 0 C99.25 2.38, 166.38 2.43, 243.6 0 M243.6 0 C264.02 -1.22, 277.47 10.31, 275.6 32 M243.6 0 C265.85 -1.46, 274.89 10.91, 275.6 32 M275.6 32 C276.85 65.49, 274.88 104.47, 275.6 131.92 M275.6 32 C274.86 64.71, 274.97 97.66, 275.6 131.92 M275.6 131.92 C276.01 154.25, 265.18 165.09, 243.6 163.92 M275.6 131.92 C275.58 153.16, 265.7 162.29, 243.6 163.92 M243.6 163.92 C165.15 163.49, 88.89 161.64, 32 163.92 M243.6 163.92 C192.61 164.19, 141.99 163.93, 32 163.92 M32 163.92 C12.07 163.71, 1.63 152.86, 0 131.92 M32 163.92 C8.48 162.37, -2.16 155.27, 0 131.92 M0 131.92 C-0.29 105.22, -1.17 81.23, 0 32 M0 131.92 C1.63 96.39, 0.67 60.57, 0 32 M0 32 C1.33 11.68, 10.39 1.32, 32 0 M0 32 C1.01 12.11, 11.85 1.64, 32 0" stroke="#1971c2" stroke-width="4" fill="none"></path></g><g stroke-opacity="0.9" fill-opacity="0.9" transform="translate(4167.788552754546 911.9159914637266) rotate(0 126.58988952636719 25)"><text x="126.58988952636719" y="17.52" font-family="Virgil, Segoe UI Emoji" font-size="20px" fill="#1971c2" text-anchor="middle" style="white-space: pre;" direction="ltr" dominant-baseline="alphabetic">Coinbase Cloud Operator </text><text x="126.58988952636719" y="42.519999999999996" font-family="Virgil, Segoe UI Emoji" font-size="20px" fill="#1971c2" text-anchor="middle" style="white-space: pre;" direction="ltr" dominant-baseline="alphabetic">0XA</text></g><g stroke-opacity="0.9" fill-opacity="0.9" stroke-linecap="round" transform="translate(4259.23662715717 971.339336010536) rotate(0 137.79941795164268 81.95802369739886)"><path d="M32 0 C83.24 -0.43, 136.62 4.68, 243.6 0 C267.2 -0.95, 277.41 7.67, 275.6 32 C276.4 59.1, 276.12 83.81, 275.6 131.92 C275.41 155.34, 261.35 165.39, 243.6 163.92 C194.48 162.6, 148.01 168.45, 32 163.92 C13.38 162.32, -1.21 150.59, 0 131.92 C2.7 91.18, 0.99 49.9, 0 32 C-0.17 13.22, 10.84 -1.73, 32 0" stroke="none" stroke-width="0" fill="#fefffe"></path><path d="M32 0 C98.62 2.88, 162.92 1.89, 243.6 0 M32 0 C108.26 -1.81, 186.15 -1.43, 243.6 0 M243.6 0 C265.73 -1.27, 274.98 10.88, 275.6 32 M243.6 0 C266.15 0.56, 274.89 11.82, 275.6 32 M275.6 32 C275.67 52.65, 274.08 73.19, 275.6 131.92 M275.6 32 C275.4 62.35, 275.32 92.29, 275.6 131.92 M275.6 131.92 C275.58 153.17, 265.6 162.5, 243.6 163.92 M275.6 131.92 C277.19 155.16, 264.19 163.47, 243.6 163.92 M243.6 163.92 C176.92 163.84, 112.49 161.76, 32 163.92 M243.6 163.92 C177.75 163.54, 111.38 163.46, 32 163.92 M32 163.92 C8.77 162.57, -1.88 155, 0 131.92 M32 163.92 C9.6 165.99, -1.66 153.95, 0 131.92 M0 131.92 C1.37 106.78, -1.3 86.88, 0 32 M0 131.92 C0.98 95.99, 0.17 59.71, 0 32 M0 32 C0.87 11.93, 11.69 1.43, 32 0 M0 32 C0.63 12.34, 10.81 -1.38, 32 0" stroke="#1971c2" stroke-width="4" fill="none"></path></g><g stroke-opacity="0.9" fill-opacity="0.9" transform="translate(4270.4461555824455 1028.297359707935) rotate(0 126.58988952636719 25)"><text x="126.58988952636719" y="17.52" font-family="Virgil, Segoe UI Emoji" font-size="20px" fill="#1971c2" text-anchor="middle" style="white-space: pre;" direction="ltr" dominant-baseline="alphabetic">Coinbase Cloud Operator </text><text x="126.58988952636719" y="42.519999999999996" font-family="Virgil, Segoe UI Emoji" font-size="20px" fill="#1971c2" text-anchor="middle" style="white-space: pre;" direction="ltr" dominant-baseline="alphabetic">0XB</text></g><g stroke-opacity="0.9" fill-opacity="0.9" stroke-linecap="round" transform="translate(4378.204265685592 1123.3201431727061) rotate(0 137.79941795164268 81.95802369739886)"><path d="M32 0 C80.9 -3.61, 127.4 -5.42, 243.6 0 C263.62 -3.04, 277.83 12.98, 275.6 32 C276.43 66.18, 273.04 97.65, 275.6 131.92 C272.82 156.01, 266.65 161.68, 243.6 163.92 C201.97 165.62, 154.48 164.68, 32 163.92 C14.01 160.91, 1.45 154.45, 0 131.92 C0.09 108.64, 0.43 78.53, 0 32 C-0.42 9.17, 9.23 -1.05, 32 0" stroke="none" stroke-width="0" fill="#fefffe"></path><path d="M32 0 C113.51 0.17, 194.02 -1.25, 243.6 0 M32 0 C82.92 -0.23, 132.86 0.42, 243.6 0 M243.6 0 C265.99 0.49, 274.98 11.67, 275.6 32 M243.6 0 C262.89 -1.1, 277.82 11.3, 275.6 32 M275.6 32 C275.05 58.92, 275.49 87.84, 275.6 131.92 M275.6 32 C275.71 66.91, 276.06 101.19, 275.6 131.92 M275.6 131.92 C276.98 154.91, 264.29 163.53, 243.6 163.92 M275.6 131.92 C275.83 155.22, 262.74 162.54, 243.6 163.92 M243.6 163.92 C159.91 163.5, 75.45 164.76, 32 163.92 M243.6 163.92 C181.47 162.96, 120.2 164.32, 32 163.92 M32 163.92 C9.74 165.72, -1.44 153.86, 0 131.92 M32 163.92 C9.1 163.61, -0.04 154.68, 0 131.92 M0 131.92 C2.01 111.18, 2.71 93.02, 0 32 M0 131.92 C0.57 97.49, 0.65 62.51, 0 32 M0 32 C0.55 12.12, 10.79 -1.2, 32 0 M0 32 C-1.25 12.54, 9.26 -0.55, 32 0" stroke="#1971c2" stroke-width="4" fill="none"></path></g><g stroke-opacity="0.9" fill-opacity="0.9" transform="translate(4394.4137941108675 1180.278166870105) rotate(0 121.58988952636719 25)"><text x="121.58988952636719" y="17.52" font-family="Virgil, Segoe UI Emoji" font-size="20px" fill="#1971c2" text-anchor="middle" style="white-space: pre;" direction="ltr" dominant-baseline="alphabetic">Coinbase Cloud Operator</text><text x="121.58988952636719" y="42.519999999999996" font-family="Virgil, Segoe UI Emoji" font-size="20px" fill="#1971c2" text-anchor="middle" style="white-space: pre;" direction="ltr" dominant-baseline="alphabetic">0XC</text></g><g stroke-opacity="0.9" fill-opacity="0.9" stroke-linecap="round" transform="translate(3268.4947768688317 833.013251075371) rotate(0 201.18751792347302 102.62325993190916)"><path d="M32 0 C106.84 4.99, 179.21 4.8, 370.38 0 C390.83 -0.19, 404.46 7.09, 402.38 32 C402.13 77.92, 397.1 126.83, 402.38 173.25 C405.71 197.3, 390.12 204.03, 370.38 205.25 C294.87 202.64, 216.41 201.49, 32 205.25 C7.14 205.08, 2.56 194.75, 0 173.25 C-1.14 136.59, 3.32 101.26, 0 32 C3 11.33, 8.84 0.66, 32 0" stroke="none" stroke-width="0" fill="#fefffe"></path><path d="M32 0 C117.77 -1.58, 203.17 -2.53, 370.38 0 M32 0 C136.9 -0.22, 241.62 -0.88, 370.38 0 M370.38 0 C393.64 0.55, 401.92 9.62, 402.38 32 M370.38 0 C390.54 -0.03, 401.45 11.14, 402.38 32 M402.38 32 C404.25 77.23, 403 123.16, 402.38 173.25 M402.38 32 C403.03 64.21, 403.45 97.65, 402.38 173.25 M402.38 173.25 C400.47 193.38, 393.64 205.41, 370.38 205.25 M402.38 173.25 C401.89 194.9, 391.68 204.9, 370.38 205.25 M370.38 205.25 C244.78 205.83, 118.81 205.84, 32 205.25 M370.38 205.25 C238.69 207.49, 107.5 207.2, 32 205.25 M32 205.25 C10.63 206.49, -1.97 193.14, 0 173.25 M32 205.25 C12.14 206.73, -0.72 196.87, 0 173.25 M0 173.25 C0.6 122.32, 0.54 70.67, 0 32 M0 173.25 C-0.33 120.19, -0.93 69.15, 0 32 M0 32 C-1.22 10.19, 9.1 0.4, 32 0 M0 32 C1.91 12.12, 10.06 1.16, 32 0" stroke="#2f9e44" stroke-width="4" fill="none"></path></g><g stroke-opacity="0.9" fill-opacity="0.9" transform="translate(3341.242399162422 910.6365110072802) rotate(0 128.4398956298828 25)"><text x="128.4398956298828" y="17.52" font-family="Virgil, Segoe UI Emoji" font-size="20px" fill="#2f9e44" text-anchor="middle" style="white-space: pre;" direction="ltr" dominant-baseline="alphabetic">eigenlayer/AVS</text><text x="128.4398956298828" y="42.519999999999996" font-family="Virgil, Segoe UI Emoji" font-size="20px" fill="#2f9e44" text-anchor="middle" style="white-space: pre;" direction="ltr" dominant-baseline="alphabetic">(mock EigenLayer rewards)</text></g><g mask="url(#mask-_MXc8eMQNKx5TC4rriznk)" stroke-linecap="round"><g stroke-opacity="0.9" fill-opacity="0.9" transform="translate(2877.588223614359 1640.048012016045) rotate(0 199.53155201122945 -300.39412053842784)"><path d="M-0.37 0.13 C66.17 -99.83, 333.19 -500.44, 399.7 -600.49 M1.64 -0.85 C68.03 -101.12, 333.07 -502.24, 399.09 -602.46" stroke="#2f9e44" stroke-width="4" fill="none"></path></g><g stroke-opacity="0.9" fill-opacity="0.9" transform="translate(2877.588223614359 1640.048012016045) rotate(0 199.53155201122945 -300.39412053842784)"><path d="M393.28 -578.14 C395.62 -585.33, 397.87 -595.27, 399.09 -602.46 M393.28 -578.14 C396.5 -586.36, 397.34 -595.67, 399.09 -602.46" stroke="#2f9e44" stroke-width="4" fill="none"></path></g><g stroke-opacity="0.9" fill-opacity="0.9" transform="translate(2877.588223614359 1640.048012016045) rotate(0 199.53155201122945 -300.39412053842784)"><path d="M379.01 -587.56 C386.14 -591.51, 393.24 -598.24, 399.09 -602.46 M379.01 -587.56 C387.14 -592.41, 392.98 -598.42, 399.09 -602.46" stroke="#2f9e44" stroke-width="4" fill="none"></path></g></g><mask id="mask-_MXc8eMQNKx5TC4rriznk"><rect x="0" y="0" fill="#fff" width="3376.6513276368178" height="2340.8362530929007"></rect><rect x="3000.8498400176777" y="1327.1538914776174" fill="#000" width="152.5398712158203" height="25" opacity="1"></rect></mask><g stroke-opacity="0.9" fill-opacity="0.9" transform="translate(3000.8498400176777 1327.1538914776165) rotate(0 76.40286450646863 11.726836697701629)"><text x="76.26993560791016" y="17.52" font-family="Virgil, Segoe UI Emoji" font-size="20px" fill="#2f9e44" text-anchor="middle" style="white-space: pre;" direction="ltr" dominant-baseline="alphabetic">claimRewareds()</text></g><g mask="url(#mask-Lv6rKNaWgayBSVnVu9p35)" stroke-linecap="round"><g stroke-opacity="0.9" fill-opacity="0.9" transform="translate(3472.500605275106 1060.1461203926083) rotate(0 -282.20355266996285 308.4931116250689)"><path d="M-0.37 0.6 C-94.72 103.29, -471.66 513.62, -565.47 616.41 M1.64 -0.13 C-92.41 102.69, -469.15 514.49, -563.32 617.65" stroke="#2f9e44" stroke-width="4" fill="none"></path></g><g stroke-opacity="0.9" fill-opacity="0.9" transform="translate(3472.500605275106 1060.1461203926083) rotate(0 -282.20355266996285 308.4931116250689)"><path d="M-553.78 594.54 C-556.09 600.89, -561.42 612.75, -563.32 617.65 M-553.78 594.54 C-557.47 602.04, -560.48 609.83, -563.32 617.65" stroke="#2f9e44" stroke-width="4" fill="none"></path></g><g stroke-opacity="0.9" fill-opacity="0.9" transform="translate(3472.500605275106 1060.1461203926083) rotate(0 -282.20355266996285 308.4931116250689)"><path d="M-541.16 606.07 C-547.95 608.32, -557.74 616.11, -563.32 617.65 M-541.16 606.07 C-548.95 609.74, -556.1 613.75, -563.32 617.65" stroke="#2f9e44" stroke-width="4" fill="none"></path></g></g><mask id="mask-Lv6rKNaWgayBSVnVu9p35"><rect x="0" y="0" fill="#fff" width="4136.907710615032" height="1777.132343642746"></rect><rect x="3100.9871313404956" y="1356.139232017677" fill="#000" width="178.61984252929688" height="25" opacity="1"></rect></mask><g stroke-opacity="0.9" fill-opacity="0.9" transform="translate(3100.9871313404947 1356.1392320176765) rotate(0 89.59655565714456 12.766384044401548)"><text x="89.30992126464844" y="17.52" font-family="Virgil, Segoe UI Emoji" font-size="20px" fill="#2f9e44" text-anchor="middle" style="white-space: pre;" direction="ltr" dominant-baseline="alphabetic">transferRewards()</text></g><g stroke-opacity="0.9" fill-opacity="0.9" stroke-linecap="round" transform="translate(2681.918075039305 684.2354733493526) rotate(0 214.88990324220003 131.99393051970083)"><path d="M32 0 C112.1 -4.02, 194.06 0.12, 397.78 0 C421.83 -1.59, 428.56 8, 429.78 32 C427.97 109.06, 426.26 185.58, 429.78 231.99 C429.61 255.88, 419.29 262.26, 397.78 263.99 C291.66 264.23, 186.37 264.22, 32 263.99 C11.33 262.16, 0.66 251.57, 0 231.99 C1.46 186.47, 3.1 136.57, 0 32 C-1.55 11.76, 12.83 -0.81, 32 0" stroke="none" stroke-width="0" fill="#fefffe"></path><path d="M32 0 C109.59 -2.48, 185.85 -2.84, 397.78 0 M32 0 C141.41 -0.16, 250.64 -0.11, 397.78 0 M397.78 0 C419.09 -0.08, 430.45 9.25, 429.78 32 M397.78 0 C420.7 1.91, 429.04 10.22, 429.78 32 M429.78 32 C430.29 95.96, 431.65 155.63, 429.78 231.99 M429.78 32 C430.46 94.72, 430.57 157.45, 429.78 231.99 M429.78 231.99 C427.88 251.98, 417.24 265.74, 397.78 263.99 M429.78 231.99 C428.71 255.39, 417.46 264.69, 397.78 263.99 M397.78 263.99 C313.77 262.72, 227.32 264.75, 32 263.99 M397.78 263.99 C264.83 266.58, 130.96 266.67, 32 263.99 M32 263.99 C11.54 265.25, 1.02 254.75, 0 231.99 M32 263.99 C11.3 265.66, 0.14 251.95, 0 231.99 M0 231.99 C-2.1 181.28, -1.22 135.37, 0 32 M0 231.99 C-0.31 159.03, -0.32 87.42, 0 32 M0 32 C1.29 11.09, 11.8 -0.49, 32 0 M0 32 C-0.12 12, 8.38 0.94, 32 0" stroke="#2f9e44" stroke-width="4" fill="none"></path></g><g stroke-opacity="0.9" fill-opacity="0.9" transform="translate(2776.098078379162 778.7294038690534) rotate(0 120.70989990234375 37.5)"><text x="120.70989990234375" y="17.52" font-family="Virgil, Segoe UI Emoji" font-size="20px" fill="#2f9e44" text-anchor="middle" style="white-space: pre;" direction="ltr" dominant-baseline="alphabetic">UNISWAP</text><text x="120.70989990234375" y="42.519999999999996" font-family="Virgil, Segoe UI Emoji" font-size="20px" fill="#2f9e44" text-anchor="middle" style="white-space: pre;" direction="ltr" dominant-baseline="alphabetic"></text><text x="120.70989990234375" y="67.52" font-family="Virgil, Segoe UI Emoji" font-size="20px" fill="#2f9e44" text-anchor="middle" style="white-space: pre;" direction="ltr" dominant-baseline="alphabetic">(mock Uniswap interface)</text></g><g mask="url(#mask-wwhOIBru-ue86IIRAVfdM)" stroke-linecap="round"><g stroke-opacity="0.9" fill-opacity="0.9" transform="translate(2489.4655913033785 1654.436824237585) rotate(0 103.3902572828365 -346.6466400623415)"><path d="M-0.61 -0.01 C33.82 -115.42, 171.69 -577.6, 206.3 -693.05 M1.27 -1.07 C35.52 -116.8, 170.91 -579.43, 205.1 -695.04" stroke="#2f9e44" stroke-width="4" fill="none"></path></g><g stroke-opacity="0.9" fill-opacity="0.9" transform="translate(2489.4655913033785 1654.436824237585) rotate(0 103.3902572828365 -346.6466400623415)"><path d="M-2.09 -24.97 C-1.83 -18.84, -0.98 -10.71, -0.61 -0.01 M-2.09 -24.97 C-1.55 -16.29, -0.69 -8.23, -0.61 -0.01" stroke="#2f9e44" stroke-width="4" fill="none"></path></g><g stroke-opacity="0.9" fill-opacity="0.9" transform="translate(2489.4655913033785 1654.436824237585) rotate(0 103.3902572828365 -346.6466400623415)"><path d="M14.3 -20.08 C10.04 -15.39, 6.34 -8.62, -0.61 -0.01 M14.3 -20.08 C9.1 -13.01, 4.23 -6.66, -0.61 -0.01" stroke="#2f9e44" stroke-width="4" fill="none"></path></g><g stroke-opacity="0.9" fill-opacity="0.9" transform="translate(2489.4655913033785 1654.436824237585) rotate(0 103.3902572828365 -346.6466400623415)"><path d="M206.68 -670.09 C206.34 -677.82, 206.34 -683.53, 205.1 -695.04 M206.68 -670.09 C206.08 -678.84, 205.88 -688.24, 205.1 -695.04" stroke="#2f9e44" stroke-width="4" fill="none"></path></g><g stroke-opacity="0.9" fill-opacity="0.9" transform="translate(2489.4655913033785 1654.436824237585) rotate(0 103.3902572828365 -346.6466400623415)"><path d="M190.27 -674.91 C194.46 -681.22, 199.02 -685.6, 205.1 -695.04 M190.27 -674.91 C195.42 -682.08, 200.96 -689.78, 205.1 -695.04" stroke="#2f9e44" stroke-width="4" fill="none"></path></g></g><mask id="mask-wwhOIBru-ue86IIRAVfdM"><rect x="0" y="0" fill="#fff" width="2796.2461058690515" height="2447.730104362268"></rect><rect x="2506.245901381624" y="1282.7901841752432" fill="#000" width="173.2198944091797" height="50" opacity="1"></rect></mask><g stroke-opacity="0.9" fill-opacity="0.9" transform="translate(2506.245901381626 1282.7901841752428) rotate(0 86.06423065923173 24.120465969983798)"><text x="86.60994720458984" y="17.52" font-family="Virgil, Segoe UI Emoji" font-size="20px" fill="#2f9e44" text-anchor="middle" style="white-space: pre;" direction="ltr" dominant-baseline="alphabetic">swap(AVSERC20, </text><text x="86.60994720458984" y="42.519999999999996" font-family="Virgil, Segoe UI Emoji" font-size="20px" fill="#2f9e44" text-anchor="middle" style="white-space: pre;" direction="ltr" dominant-baseline="alphabetic">EHTX)</text></g><g stroke-linecap="round"><g stroke-opacity="0.9" fill-opacity="0.9" transform="translate(2946.715575013547 2015.404311071406) rotate(0 49.51877107873497 54.57621818636403)"><path d="M-0.57 -0.74 C15.76 17.29, 81.72 90.24, 98.42 108.67 M1.34 1.48 C18.03 19.64, 84.49 92.23, 100.8 109.95" stroke="#1971c2" stroke-width="4" fill="none"></path></g><g stroke-opacity="0.9" fill-opacity="0.9" transform="translate(2946.715575013547 2015.404311071406) rotate(0 49.51877107873497 54.57621818636403)"><path d="M21.54 10.94 C12.81 5.87, 5.79 3.98, -0.57 -0.74 M21.54 10.94 C13.12 6.4, 5.66 3.31, -0.57 -0.74" stroke="#1971c2" stroke-width="4" fill="none"></path></g><g stroke-opacity="0.9" fill-opacity="0.9" transform="translate(2946.715575013547 2015.404311071406) rotate(0 49.51877107873497 54.57621818636403)"><path d="M8.85 22.42 C4.35 13.54, 1.61 7.78, -0.57 -0.74 M8.85 22.42 C4.94 13.77, 2.01 6.59, -0.57 -0.74" stroke="#1971c2" stroke-width="4" fill="none"></path></g><g stroke-opacity="0.9" fill-opacity="0.9" transform="translate(2946.715575013547 2015.404311071406) rotate(0 49.51877107873497 54.57621818636403)"><path d="M78.62 98.42 C84.9 101.38, 92.81 107.31, 100.8 109.95 M78.62 98.42 C86.05 102.13, 94.39 107.32, 100.8 109.95" stroke="#1971c2" stroke-width="4" fill="none"></path></g><g stroke-opacity="0.9" fill-opacity="0.9" transform="translate(2946.715575013547 2015.404311071406) rotate(0 49.51877107873497 54.57621818636403)"><path d="M91.22 86.86 C93.31 93.65, 96.97 103.48, 100.8 109.95 M91.22 86.86 C94.17 94.71, 98.02 104.03, 100.8 109.95" stroke="#1971c2" stroke-width="4" fill="none"></path></g></g><mask></mask><g stroke-linecap="round"><g stroke-opacity="0.9" fill-opacity="0.9" transform="translate(3377.9956522786542 2195.6208478638287) rotate(0 517.1332624981478 -94.73875212779126)"><path d="M-0.13 -0.27 C172.56 -31.78, 862.53 -156.92, 1035.07 -188.49 M-1.66 -1.46 C171.04 -33.33, 861.8 -158.92, 1034.54 -190.09" stroke="#1971c2" stroke-width="4" fill="none"></path></g><g stroke-opacity="0.9" fill-opacity="0.9" transform="translate(3377.9956522786542 2195.6208478638287) rotate(0 517.1332624981478 -94.73875212779126)"><path d="M21.45 -12.89 C16.57 -8.95, 14.18 -6.28, -0.13 -0.27 M21.45 -12.89 C15.87 -8.58, 9.22 -4.6, -0.13 -0.27" stroke="#1971c2" stroke-width="4" fill="none"></path></g><g stroke-opacity="0.9" fill-opacity="0.9" transform="translate(3377.9956522786542 2195.6208478638287) rotate(0 517.1332624981478 -94.73875212779126)"><path d="M24.51 3.94 C18.91 4.37, 15.89 3.55, -0.13 -0.27 M24.51 3.94 C18 3.53, 10.49 2.77, -0.13 -0.27" stroke="#1971c2" stroke-width="4" fill="none"></path></g><g stroke-opacity="0.9" fill-opacity="0.9" transform="translate(3377.9956522786542 2195.6208478638287) rotate(0 517.1332624981478 -94.73875212779126)"><path d="M1012.95 -177.49 C1016.93 -178.75, 1023.52 -181.32, 1034.54 -190.09 M1012.95 -177.49 C1019.44 -180.68, 1024.97 -183.81, 1034.54 -190.09" stroke="#1971c2" stroke-width="4" fill="none"></path></g><g stroke-opacity="0.9" fill-opacity="0.9" transform="translate(3377.9956522786542 2195.6208478638287) rotate(0 517.1332624981478 -94.73875212779126)"><path d="M1009.9 -194.32 C1014.59 -192.08, 1021.81 -191.15, 1034.54 -190.09 M1009.9 -194.32 C1017.32 -192.79, 1023.7 -191.18, 1034.54 -190.09" stroke="#1971c2" stroke-width="4" fill="none"></path></g></g><mask></mask><g stroke-opacity="0.9" fill-opacity="0.9" stroke-linecap="round" transform="translate(2504.5045552379497 1718.9325945364749) rotate(0 211.5851232047121 111.37141600520226)"><path d="M32 0 C174.51 -2.08, 315.3 -2.37, 391.17 0 C410.17 2.33, 420.25 13.9, 423.17 32 C424.62 85.97, 422.9 135.98, 423.17 190.74 C423.83 211.45, 414.21 225.58, 391.17 222.74 C294.18 223.5, 194.68 223.43, 32 222.74 C14.22 225.82, 3.51 214.88, 0 190.74 C2.23 146.89, 1.29 99.65, 0 32 C-3.54 12.62, 13.55 -2.03, 32 0" stroke="none" stroke-width="0" fill="#fefffe"></path><path d="M32 0 C126.45 0.63, 219.01 -0.72, 391.17 0 M32 0 C124.93 1.74, 217.66 1.77, 391.17 0 M391.17 0 C412.05 -0.11, 424.18 11.1, 423.17 32 M391.17 0 C412.76 1.88, 423.38 9.3, 423.17 32 M423.17 32 C423.48 94.65, 424.24 154.26, 423.17 190.74 M423.17 32 C422.12 67.1, 421.61 101.5, 423.17 190.74 M423.17 190.74 C423.84 212.9, 412.22 222.4, 391.17 222.74 M423.17 190.74 C424.68 211.59, 411.92 222.33, 391.17 222.74 M391.17 222.74 C263.82 223.62, 137.69 222.84, 32 222.74 M391.17 222.74 C288.82 220.59, 186.31 220.84, 32 222.74 M32 222.74 C11.72 224.16, 1.99 211.76, 0 190.74 M32 222.74 C9.76 220.59, 0.1 210.05, 0 190.74 M0 190.74 C2.18 128.69, 1.33 67.43, 0 32 M0 190.74 C-0.32 137.19, -0.16 84.77, 0 32 M0 32 C0.7 10.95, 9.91 -1.75, 32 0 M0 32 C0.17 12.65, 11.2 -0.8, 32 0" stroke="#1e1e1e" stroke-width="4" fill="none"></path></g><g stroke-opacity="0.9" fill-opacity="0.9" transform="translate(2543.7097956301623 1805.3040105416771) rotate(0 172.3798828125 25)"><text x="172.3798828125" y="17.52" font-family="Virgil, Segoe UI Emoji" font-size="20px" fill="#1e1e1e" text-anchor="middle" style="white-space: pre;" direction="ltr" dominant-baseline="alphabetic">contract FundManager @ Ethereum</text><text x="172.3798828125" y="42.519999999999996" font-family="Virgil, Segoe UI Emoji" font-size="20px" fill="#1e1e1e" text-anchor="middle" style="white-space: pre;" direction="ltr" dominant-baseline="alphabetic">+ deposit()</text></g><g stroke-opacity="0.9" fill-opacity="0.9" stroke-linecap="round" transform="translate(2582.4263457357956 1791.2252364569295) rotate(0 211.5851232047121 111.37141600520226)"><path d="M32 0 C132.08 2.58, 235.08 1.58, 391.17 0 C412.84 -1.66, 420.94 11.18, 423.17 32 C426.44 84.72, 425.11 134.72, 423.17 190.74 C424.43 214.28, 408.95 224.08, 391.17 222.74 C296.54 222.78, 198.76 223.4, 32 222.74 C9.89 224.25, 3.13 211.4, 0 190.74 C-2.78 145.05, 3.32 107.09, 0 32 C0.71 12.71, 7.11 0, 32 0" stroke="none" stroke-width="0" fill="#fefffe"></path><path d="M32 0 C159.06 -0.42, 285.53 -0.55, 391.17 0 M32 0 C142.26 1.52, 253.64 0.89, 391.17 0 M391.17 0 C410.63 0.57, 424.06 11.78, 423.17 32 M391.17 0 C412.37 0.52, 424.25 12.62, 423.17 32 M423.17 32 C421.53 86.38, 423.24 144.08, 423.17 190.74 M423.17 32 C422.22 69.86, 422.46 110.24, 423.17 190.74 M423.17 190.74 C425.15 210.75, 414.11 224.72, 391.17 222.74 M423.17 190.74 C424.08 212.29, 411.89 220.56, 391.17 222.74 M391.17 222.74 C256.12 221.29, 121.19 223.6, 32 222.74 M391.17 222.74 C285.66 222.28, 180.53 222.63, 32 222.74 M32 222.74 C12.23 222.93, 0.63 212.6, 0 190.74 M32 222.74 C9.73 224.89, -0.48 211.38, 0 190.74 M0 190.74 C-0.93 152.27, 1.45 111.6, 0 32 M0 190.74 C0.14 144.05, -0.92 97.03, 0 32 M0 32 C-1.45 11.16, 12.24 1.75, 32 0 M0 32 C-2.21 12.54, 9.69 0.45, 32 0" stroke="#1e1e1e" stroke-width="4" fill="none"></path></g><g stroke-opacity="0.9" fill-opacity="0.9" transform="translate(2657.2715855176557 1827.5966524621317) rotate(0 136.73988342285156 75)"><text x="136.73988342285156" y="17.52" font-family="Virgil, Segoe UI Emoji" font-size="20px" fill="#1e1e1e" text-anchor="middle" style="white-space: pre;" direction="ltr" dominant-baseline="alphabetic">contract Vault @ Ethereum</text><text x="136.73988342285156" y="42.519999999999996" font-family="Virgil, Segoe UI Emoji" font-size="20px" fill="#1e1e1e" text-anchor="middle" style="white-space: pre;" direction="ltr" dominant-baseline="alphabetic">+ deposit()</text><text x="136.73988342285156" y="67.52" font-family="Virgil, Segoe UI Emoji" font-size="20px" fill="#1e1e1e" text-anchor="middle" style="white-space: pre;" direction="ltr" dominant-baseline="alphabetic">+ withdraw()</text><text x="136.73988342285156" y="92.52" font-family="Virgil, Segoe UI Emoji" font-size="20px" fill="#1e1e1e" text-anchor="middle" style="white-space: pre;" direction="ltr" dominant-baseline="alphabetic">+ rebalnce()</text><text x="136.73988342285156" y="117.52" font-family="Virgil, Segoe UI Emoji" font-size="20px" fill="#1e1e1e" text-anchor="middle" style="white-space: pre;" direction="ltr" dominant-baseline="alphabetic"></text><text x="136.73988342285156" y="142.52" font-family="Virgil, Segoe UI Emoji" font-size="20px" fill="#1e1e1e" text-anchor="middle" style="white-space: pre;" direction="ltr" dominant-baseline="alphabetic">map[EgenOperator]uint265 </text></g><g stroke-opacity="0.9" fill-opacity="0.9" transform="translate(2339.498296043417 1980.0222364475121) rotate(0 102.80992889404297 12.5)"><text x="0" y="17.52" font-family="Virgil, Segoe UI Emoji" font-size="20px" fill="#1971c2" text-anchor="start" style="white-space: pre;" direction="ltr" dominant-baseline="alphabetic">stETH, cbETH, ETHx</text></g><g stroke-opacity="0.9" fill-opacity="0.9" stroke-linecap="round" transform="translate(2931.4743586760032 2148.6922804587416) rotate(0 216.46728732173278 105)"><path d="M32 0 C172.08 -1.47, 309.03 1.04, 400.93 0 C419.75 -2.27, 431.92 9, 432.93 32 C436.99 72.05, 435.64 111.98, 432.93 178 C433.61 197.9, 425.77 212.05, 400.93 210 C269.28 211.73, 134.71 213.15, 32 210 C12.79 213.3, 3.53 200.96, 0 178 C5.21 122.51, 3.82 71.78, 0 32 C1.33 9.77, 7.61 -0.71, 32 0" stroke="none" stroke-width="0" fill="#fefffe"></path><path d="M32 0 C118.91 0.76, 204.37 2.74, 400.93 0 M32 0 C160.67 -0.69, 289.6 -0.37, 400.93 0 M400.93 0 C422.6 1.31, 434.14 10.57, 432.93 32 M400.93 0 C423.27 1.38, 435.2 12.89, 432.93 32 M432.93 32 C432.42 67.11, 435.89 102.66, 432.93 178 M432.93 32 C432.86 75.26, 434.62 116.88, 432.93 178 M432.93 178 C432.81 199.42, 423.81 211.55, 400.93 210 M432.93 178 C432.49 197.91, 420.18 209.7, 400.93 210 M400.93 210 C309.46 212.24, 218.14 212.57, 32 210 M400.93 210 C283.99 208.7, 167 208.42, 32 210 M32 210 C9.52 208.88, -1.58 199.27, 0 178 M32 210 C9.81 211.69, -0.51 200.58, 0 178 M0 178 C-1.02 139.56, 1.27 100.12, 0 32 M0 178 C1.69 147.37, 1.25 118.19, 0 32 M0 32 C0.59 12.16, 9.19 0.52, 32 0 M0 32 C-0.74 10.5, 8.5 -1.14, 32 0" stroke="#1e1e1e" stroke-width="4" fill="none"></path></g><g stroke-opacity="0.9" fill-opacity="0.9" transform="translate(2969.5618089616037 2153.6922804587416) rotate(0 178.3798370361328 100)"><text x="178.3798370361328" y="17.52" font-family="Virgil, Segoe UI Emoji" font-size="20px" fill="#1e1e1e" text-anchor="middle" style="white-space: pre;" direction="ltr" dominant-baseline="alphabetic">contract Manager</text><text x="178.3798370361328" y="42.519999999999996" font-family="Virgil, Segoe UI Emoji" font-size="20px" fill="#1e1e1e" text-anchor="middle" style="white-space: pre;" direction="ltr" dominant-baseline="alphabetic">+ map[EigenOperator]uint256 (bps) </text><text x="178.3798370361328" y="67.52" font-family="Virgil, Segoe UI Emoji" font-size="20px" fill="#1e1e1e" text-anchor="middle" style="white-space: pre;" direction="ltr" dominant-baseline="alphabetic">operators; </text><text x="178.3798370361328" y="92.52" font-family="Virgil, Segoe UI Emoji" font-size="20px" fill="#1e1e1e" text-anchor="middle" style="white-space: pre;" direction="ltr" dominant-baseline="alphabetic">+address[] admins;</text><text x="178.3798370361328" y="117.52" font-family="Virgil, Segoe UI Emoji" font-size="20px" fill="#1e1e1e" text-anchor="middle" style="white-space: pre;" direction="ltr" dominant-baseline="alphabetic">+ Vault[] vaults;</text><text x="178.3798370361328" y="142.52" font-family="Virgil, Segoe UI Emoji" font-size="20px" fill="#1e1e1e" text-anchor="middle" style="white-space: pre;" direction="ltr" dominant-baseline="alphabetic"></text><text x="178.3798370361328" y="167.52" font-family="Virgil, Segoe UI Emoji" font-size="20px" fill="#1e1e1e" text-anchor="middle" style="white-space: pre;" direction="ltr" dominant-baseline="alphabetic"></text><text x="178.3798370361328" y="192.52" font-family="Virgil, Segoe UI Emoji" font-size="20px" fill="#1e1e1e" text-anchor="middle" style="white-space: pre;" direction="ltr" dominant-baseline="alphabetic">+ setOperator(address, bps uin265)</text></g><g stroke-opacity="0.9" fill-opacity="0.9" transform="translate(2592.274587605317 2122.832094021477) rotate(0 62.91996765136719 37.5)"><text x="0" y="17.52" font-family="Virgil, Segoe UI Emoji" font-size="20px" fill="#1e1e1e" text-anchor="start" style="white-space: pre;" direction="ltr" dominant-baseline="alphabetic"></text><text x="0" y="42.519999999999996" font-family="Virgil, Segoe UI Emoji" font-size="20px" fill="#1e1e1e" text-anchor="start" style="white-space: pre;" direction="ltr" dominant-baseline="alphabetic"></text><text x="0" y="67.52" font-family="Virgil, Segoe UI Emoji" font-size="20px" fill="#1e1e1e" text-anchor="start" style="white-space: pre;" direction="ltr" dominant-baseline="alphabetic">1bps = 0.01%</text></g><g stroke-opacity="0.9" fill-opacity="0.9" transform="translate(4499.672425444085 910.4567703523207) rotate(0 55.38996887207031 12.5)"><text x="0" y="17.52" font-family="Virgil, Segoe UI Emoji" font-size="20px" fill="#1e1e1e" text-anchor="start" style="white-space: pre;" direction="ltr" dominant-baseline="alphabetic">70% Stake</text></g><g stroke-opacity="0.9" fill-opacity="0.9" transform="translate(4571.2139197225115 984.5533179978343) rotate(0 52.719970703125 12.5)"><text x="0" y="17.52" font-family="Virgil, Segoe UI Emoji" font-size="20px" fill="#1e1e1e" text-anchor="start" style="white-space: pre;" direction="ltr" dominant-baseline="alphabetic">10% Stake</text></g><g stroke-opacity="0.9" fill-opacity="0.9" transform="translate(4636.757026994614 1073.9702051686531) rotate(0 57.129966735839844 12.5)"><text x="0" y="17.52" font-family="Virgil, Segoe UI Emoji" font-size="20px" fill="#1e1e1e" text-anchor="start" style="white-space: pre;" direction="ltr" dominant-baseline="alphabetic">20% Stake</text></g><g stroke-opacity="0.9" fill-opacity="0.9" stroke-linecap="round" transform="translate(3266.0398303163965 584.0392798115081) rotate(0 193.63656582188332 107.64176086115413)"><path d="M32 0 C131.64 1.7, 232.69 2.67, 355.27 0 C374.71 -3.37, 386.76 13.47, 387.27 32 C384.61 71.14, 383.06 105.79, 387.27 183.28 C390.39 205.88, 377.27 214.77, 355.27 215.28 C258.8 211.3, 161.27 211.54, 32 215.28 C13.46 214.64, 0.48 206.94, 0 183.28 C4.53 136.57, 4.46 82.26, 0 32 C0.79 7.81, 11.79 -1.78, 32 0" stroke="none" stroke-width="0" fill="#fefffe"></path><path d="M32 0 C131.18 -0.6, 230.87 0.97, 355.27 0 M32 0 C126.61 -2.68, 221.97 -2.29, 355.27 0 M355.27 0 C376.88 1.23, 386.47 11.16, 387.27 32 M355.27 0 C377.85 -1.26, 385.31 8.77, 387.27 32 M387.27 32 C387.9 73.74, 387.09 113, 387.27 183.28 M387.27 32 C385.85 90.43, 387.38 147.93, 387.27 183.28 M387.27 183.28 C387 205.09, 378.41 216.94, 355.27 215.28 M387.27 183.28 C386.45 205.96, 376.08 214.85, 355.27 215.28 M355.27 215.28 C287.79 215.98, 218.68 216, 32 215.28 M355.27 215.28 C269.83 215.99, 186.13 216.81, 32 215.28 M32 215.28 C12.5 213.55, -0.8 205.34, 0 183.28 M32 215.28 C9.33 215.5, 2.09 204.96, 0 183.28 M0 183.28 C-1.26 141.3, -1.29 100.43, 0 32 M0 183.28 C-0.52 130.06, 0.71 76.05, 0 32 M0 32 C0.52 9.72, 12.38 -0.28, 32 0 M0 32 C-2.26 11.81, 11.7 -0.15, 32 0" stroke="#2f9e44" stroke-width="4" fill="none"></path></g><g stroke-opacity="0.9" fill-opacity="0.9" transform="translate(3401.086430317967 679.1810406726622) rotate(0 58.5899658203125 12.5)"><text x="58.5899658203125" y="17.52" font-family="Virgil, Segoe UI Emoji" font-size="20px" fill="#2f9e44" text-anchor="middle" style="white-space: pre;" direction="ltr" dominant-baseline="alphabetic">AVS1-ERC20</text></g><g stroke-opacity="0.9" fill-opacity="0.9" transform="translate(2440.180266604729 815.141197035522) rotate(0 74.82994079589844 25)"><text x="0" y="17.52" font-family="Virgil, Segoe UI Emoji" font-size="20px" fill="#2f9e44" text-anchor="start" style="white-space: pre;" direction="ltr" dominant-baseline="alphabetic">Green - mocked</text><text x="0" y="42.519999999999996" font-family="Virgil, Segoe UI Emoji" font-size="20px" fill="#2f9e44" text-anchor="start" style="white-space: pre;" direction="ltr" dominant-baseline="alphabetic"></text></g><g stroke-opacity="0.9" fill-opacity="0.9" stroke-linecap="round" transform="translate(3280.3466103574547 1513.7190873040804) rotate(0 221.80351017310386 100.12488960902579)"><path d="M32 0 C153.66 -3.11, 279.63 -2.13, 411.61 0 C433.04 -2.84, 440.75 11.49, 443.61 32 C444.32 77.05, 442.13 121.54, 443.61 168.25 C441.26 190.17, 436.21 200.58, 411.61 200.25 C330.38 201.73, 246.22 202.1, 32 200.25 C7.17 200.24, 0.71 187.04, 0 168.25 C-0.3 144.25, 3.87 112.45, 0 32 C2.18 11.04, 11.47 -2.92, 32 0" stroke="none" stroke-width="0" fill="#fefffe"></path><path d="M32 0 C146.76 0.71, 259.02 0.5, 411.61 0 M32 0 C135.89 -1.45, 240.11 -0.8, 411.61 0 M411.61 0 C431.22 0.04, 445.19 11.03, 443.61 32 M411.61 0 C432.36 -0.66, 442.2 10.25, 443.61 32 M443.61 32 C443.77 81.2, 441.78 128.37, 443.61 168.25 M443.61 32 C445.29 82.74, 445.58 133.67, 443.61 168.25 M443.61 168.25 C444.67 190.51, 431.2 198.96, 411.61 200.25 M443.61 168.25 C445.44 188.72, 431.98 202.29, 411.61 200.25 M411.61 200.25 C302.72 198.29, 192.31 198.49, 32 200.25 M411.61 200.25 C299.98 198.62, 188.79 198.81, 32 200.25 M32 200.25 C9.19 198.58, 1.89 190.9, 0 168.25 M32 200.25 C12.62 199.89, -1.59 187.53, 0 168.25 M0 168.25 C0.05 127.98, 0.54 88.59, 0 32 M0 168.25 C-0.86 127.26, -1.2 86.82, 0 32 M0 32 C-1.54 8.97, 12.18 -1.89, 32 0 M0 32 C2.13 9.25, 10.61 -0.72, 32 0" stroke="#f08c00" stroke-width="4" fill="none"></path></g><g stroke-opacity="0.9" fill-opacity="0.9" transform="translate(3372.190220628215 1576.3439769131064) rotate(0 129.95989990234375 37.5)"><text x="129.95989990234375" y="17.52" font-family="Virgil, Segoe UI Emoji" font-size="20px" fill="#f08c00" text-anchor="middle" style="white-space: pre;" direction="ltr" dominant-baseline="alphabetic">MyOperatorStakerManager</text><text x="129.95989990234375" y="42.519999999999996" font-family="Virgil, Segoe UI Emoji" font-size="20px" fill="#f08c00" text-anchor="middle" style="white-space: pre;" direction="ltr" dominant-baseline="alphabetic">+ address oprator = 0xA</text><text x="129.95989990234375" y="67.52" font-family="Virgil, Segoe UI Emoji" font-size="20px" fill="#f08c00" text-anchor="middle" style="white-space: pre;" direction="ltr" dominant-baseline="alphabetic"></text></g><g stroke-opacity="0.9" fill-opacity="0.9" stroke-linecap="round" transform="translate(4399.161636624491 1525.1317138385439) rotate(0 193.69770388325287 111.09920299557598)"><path d="M32 0 C102.44 -3.32, 169.25 -0.48, 355.4 0 C378.56 -1.52, 388.08 13.08, 387.4 32 C387.24 69.43, 388.35 100.63, 387.4 190.2 C388.06 208.73, 374.7 223.58, 355.4 222.2 C250.52 222.97, 146.93 225.51, 32 222.2 C13.64 224.91, -3.11 208.94, 0 190.2 C3 154.85, -1.83 116, 0 32 C-1.05 14.22, 10.09 -2.38, 32 0" stroke="none" stroke-width="0" fill="#fefffe"></path><path d="M32 0 C119.31 -1.5, 208.18 -1.8, 355.4 0 M32 0 C97.29 -0.69, 164.33 -0.48, 355.4 0 M355.4 0 C376.73 -0.74, 389.25 12.44, 387.4 32 M355.4 0 C376.09 -0.21, 387.27 8.45, 387.4 32 M387.4 32 C385.33 64.44, 388.71 96.2, 387.4 190.2 M387.4 32 C386.34 94.35, 386.81 157.04, 387.4 190.2 M387.4 190.2 C385.87 210.79, 378.46 223.39, 355.4 222.2 M387.4 190.2 C388.98 209.74, 374.55 222.46, 355.4 222.2 M355.4 222.2 C291.03 219.39, 223.9 219.32, 32 222.2 M355.4 222.2 C269.67 221.15, 183.44 220.99, 32 222.2 M32 222.2 C11.62 220.97, -0.07 211, 0 190.2 M32 222.2 C12.35 223.45, -1.06 209.46, 0 190.2 M0 190.2 C-0.79 130.09, -0.6 70.83, 0 32 M0 190.2 C0.57 137.34, 0.38 82.21, 0 32 M0 32 C0.91 10.72, 12.08 0.44, 32 0 M0 32 C-0.07 12.39, 8.43 -0.19, 32 0" stroke="#1971c2" stroke-width="4" fill="none"></path></g><g stroke-opacity="0.9" fill-opacity="0.9" transform="translate(4449.739467460868 1623.7309168341199) rotate(0 143.119873046875 12.5)"><text x="143.119873046875" y="17.52" font-family="Virgil, Segoe UI Emoji" font-size="20px" fill="#1971c2" text-anchor="middle" style="white-space: pre;" direction="ltr" dominant-baseline="alphabetic">eigenlayer/DelegationManager</text></g><g mask="url(#mask-MZHoXl8k0ZE4MxPdR3PlS)" stroke-linecap="round"><g stroke-opacity="0.9" fill-opacity="0.9" transform="translate(3010.1103958745152 1856.52941286829) rotate(0 134.61810724147017 -100.79771909709007)"><path d="M-0.44 0.03 C44.45 -33.83, 224.99 -168.89, 269.82 -202.53 M1.53 -1.01 C46.27 -34.79, 224.26 -168.21, 269.17 -201.48" stroke="#f08c00" stroke-width="4" fill="none"></path></g><g stroke-opacity="0.9" fill-opacity="0.9" transform="translate(3010.1103958745152 1856.52941286829) rotate(0 134.61810724147017 -100.79771909709007)"><path d="M255.45 -180.58 C260.06 -186.69, 263.13 -196.01, 269.17 -201.48 M255.45 -180.58 C258.76 -185.81, 262.91 -193.28, 269.17 -201.48" stroke="#f08c00" stroke-width="4" fill="none"></path></g><g stroke-opacity="0.9" fill-opacity="0.9" transform="translate(3010.1103958745152 1856.52941286829) rotate(0 134.61810724147017 -100.79771909709007)"><path d="M245.23 -194.29 C253.39 -195.69, 259.94 -200.34, 269.17 -201.48 M245.23 -194.29 C251.31 -195.75, 258.34 -199.37, 269.17 -201.48" stroke="#f08c00" stroke-width="4" fill="none"></path></g></g><mask id="mask-MZHoXl8k0ZE4MxPdR3PlS"><rect x="0" y="0" fill="#fff" width="3379.3466103574556" height="2158.12485106247"></rect><rect x="3038.398608096455" y="1730.7316937711998" fill="#000" width="212.6597900390625" height="50" opacity="1"></rect></mask><g stroke-opacity="0.9" fill-opacity="0.9" transform="translate(3038.398608096454 1730.7316937711998) rotate(0 106.39964177459478 24.54561367183919)"><text x="106.32989501953125" y="17.52" font-family="Virgil, Segoe UI Emoji" font-size="20px" fill="#f08c00" text-anchor="middle" style="white-space: pre;" direction="ltr" dominant-baseline="alphabetic">asset().transferFrom(</text><text x="106.32989501953125" y="42.519999999999996" font-family="Virgil, Segoe UI Emoji" font-size="20px" fill="#f08c00" text-anchor="middle" style="white-space: pre;" direction="ltr" dominant-baseline="alphabetic">amount)</text></g><g mask="url(#mask-fqOwu9SIC-YYtT-YI0drJ)" stroke-linecap="round"><g stroke-opacity="0.9" fill-opacity="0.9" transform="translate(3724.9536307036633 1675.9341763192342) rotate(0 343.6542732856433 114.39050991410318)"><path d="M0.02 -0.64 C114.22 37.48, 571.8 191.44, 686.3 229.62 M-1.43 1.64 C113.05 39.34, 573.9 189.95, 688.48 227.94" stroke="#f08c00" stroke-width="4" fill="none"></path></g><g stroke-opacity="0.9" fill-opacity="0.9" transform="translate(3724.9536307036633 1675.9341763192342) rotate(0 343.6542732856433 114.39050991410318)"><path d="M663.49 228.73 C672.1 226.74, 684.25 227.59, 688.48 227.94 M663.49 228.73 C670.91 228.35, 676.65 228.81, 688.48 227.94" stroke="#f08c00" stroke-width="4" fill="none"></path></g><g stroke-opacity="0.9" fill-opacity="0.9" transform="translate(3724.9536307036633 1675.9341763192342) rotate(0 343.6542732856433 114.39050991410318)"><path d="M668.83 212.48 C675.49 216.78, 685.57 223.93, 688.48 227.94 M668.83 212.48 C674.73 216.5, 679.01 221.4, 688.48 227.94" stroke="#f08c00" stroke-width="4" fill="none"></path></g></g><mask id="mask-fqOwu9SIC-YYtT-YI0drJ"><rect x="0" y="0" fill="#fff" width="4512.26217727495" height="2004.7151961474406"></rect><rect x="3991.6379866919433" y="1777.8246862333376" fill="#000" width="153.93983459472656" height="25" opacity="1"></rect></mask><g stroke-opacity="0.9" fill-opacity="0.9" transform="translate(3991.6379866919433 1777.8246862333372) rotate(0 76.83845036943421 12.600991012155873)"><text x="76.96991729736328" y="17.52" font-family="Virgil, Segoe UI Emoji" font-size="20px" fill="#f08c00" text-anchor="middle" style="white-space: pre;" direction="ltr" dominant-baseline="alphabetic">deposit(amount)</text></g><g mask="url(#mask-gccy3v_rIrjT2ikffXfEf)" stroke-linecap="round"><g stroke-opacity="0.9" fill-opacity="0.9" transform="translate(3737.910452429379 1631.0034553764826) rotate(0 327.36204934666466 -17.587740811432923)"><path d="M-0.63 -1.08 C108.54 -7.15, 544.74 -30.22, 654.08 -35.72 M1.24 0.96 C110.89 -5, 547.49 -28.34, 656.45 -34.48" stroke="#f08c00" stroke-width="4" fill="none"></path></g><g stroke-opacity="0.9" fill-opacity="0.9" transform="translate(3737.910452429379 1631.0034553764826) rotate(0 327.36204934666466 -17.587740811432923)"><path d="M633.46 -24.65 C636.69 -27.78, 642.67 -27.7, 656.45 -34.48 M633.46 -24.65 C642.58 -28.9, 651.03 -32.79, 656.45 -34.48" stroke="#f08c00" stroke-width="4" fill="none"></path></g><g stroke-opacity="0.9" fill-opacity="0.9" transform="translate(3737.910452429379 1631.0034553764826) rotate(0 327.36204934666466 -17.587740811432923)"><path d="M632.53 -41.73 C636.06 -41.07, 642.24 -37.22, 656.45 -34.48 M632.53 -41.73 C641.88 -39.31, 650.69 -36.54, 656.45 -34.48" stroke="#f08c00" stroke-width="4" fill="none"></path></g></g><mask id="mask-gccy3v_rIrjT2ikffXfEf"><rect x="0" y="0" fill="#fff" width="4492.634551122708" height="1766.1789369993485"></rect><rect x="4015.6825512145215" y="1600.9157145650493" fill="#000" width="99.17990112304688" height="25" opacity="1"></rect></mask><g stroke-opacity="0.9" fill-opacity="0.9" transform="translate(4015.6825512145206 1600.9157145650502) rotate(0 50.14127139674929 12.706174480072377)"><text x="49.58995056152344" y="17.52" font-family="Virgil, Segoe UI Emoji" font-size="20px" fill="#f08c00" text-anchor="middle" style="white-space: pre;" direction="ltr" dominant-baseline="alphabetic">delegate()</text></g><g stroke-opacity="0.9" fill-opacity="0.9" stroke-linecap="round" transform="translate(3364.5910528325185 1663.200194749456) rotate(0 221.80351017310386 100.12488960902579)"><path d="M32 0 C137.27 -0.31, 239.07 -1.18, 411.61 0 C430.58 -1.77, 444.43 13.56, 443.61 32 C447.85 64.2, 449.4 94.72, 443.61 168.25 C442.07 186.38, 433.14 203.76, 411.61 200.25 C335.67 202.11, 259.88 205.04, 32 200.25 C14.23 198.67, -2.2 191.12, 0 168.25 C4.6 118.91, 2.31 60.83, 0 32 C2.91 8.66, 9.82 0.84, 32 0" stroke="none" stroke-width="0" fill="#fefffe"></path><path d="M32 0 C166.64 0.43, 303.71 -0.12, 411.61 0 M32 0 C159.85 0.25, 287.52 -0.23, 411.61 0 M411.61 0 C434.81 0.04, 443.02 10.76, 443.61 32 M411.61 0 C431.29 1.15, 445.73 12.31, 443.61 32 M443.61 32 C442.52 65.8, 441.34 96.98, 443.61 168.25 M443.61 32 C444.56 77.51, 445 123.71, 443.61 168.25 M443.61 168.25 C445.02 189.24, 433.12 198.46, 411.61 200.25 M443.61 168.25 C445.15 190.03, 433.8 202.16, 411.61 200.25 M411.61 200.25 C317.04 198.99, 224.47 198.8, 32 200.25 M411.61 200.25 C317.11 198.24, 224.3 197.7, 32 200.25 M32 200.25 C11.74 198.72, -0.91 191.1, 0 168.25 M32 200.25 C9.59 199.75, 1.62 191.46, 0 168.25 M0 168.25 C-0.22 119.79, 0.91 72.05, 0 32 M0 168.25 C-1 118.6, -1.73 70.35, 0 32 M0 32 C-0.1 9.95, 11.11 0.69, 32 0 M0 32 C1.19 12.18, 12.85 0.57, 32 0" stroke="#f08c00" stroke-width="4" fill="none"></path></g><g stroke-opacity="0.9" fill-opacity="0.9" transform="translate(3458.594651506599 1725.825084358482) rotate(0 127.79991149902344 37.5)"><text x="127.79991149902344" y="17.52" font-family="Virgil, Segoe UI Emoji" font-size="20px" fill="#f08c00" text-anchor="middle" style="white-space: pre;" direction="ltr" dominant-baseline="alphabetic">MyStaker</text><text x="127.79991149902344" y="42.519999999999996" font-family="Virgil, Segoe UI Emoji" font-size="20px" fill="#f08c00" text-anchor="middle" style="white-space: pre;" direction="ltr" dominant-baseline="alphabetic">+ address oprator = 0xB</text><text x="127.79991149902344" y="67.52" font-family="Virgil, Segoe UI Emoji" font-size="20px" fill="#f08c00" text-anchor="middle" style="white-space: pre;" direction="ltr" dominant-baseline="alphabetic"></text></g><g stroke-opacity="0.9" fill-opacity="0.9" stroke-linecap="round" transform="translate(3529.8154017459565 1837.3563373754655) rotate(0 221.80351017310386 100.12488960902579)"><path d="M32 0 C130.9 2, 227.45 0.52, 411.61 0 C435.04 -2.79, 441.63 8.04, 443.61 32 C448.12 80.57, 444.2 122.41, 443.61 168.25 C445.93 191.94, 434.67 202.06, 411.61 200.25 C312.78 203.8, 216.63 203.54, 32 200.25 C8.41 202.6, -1.25 189.46, 0 168.25 C1.76 121.99, 0.87 78.99, 0 32 C3.12 11.01, 8.49 1.61, 32 0" stroke="none" stroke-width="0" fill="#fefffe"></path><path d="M32 0 C162.6 2.59, 292.8 1.66, 411.61 0 M32 0 C157.66 0.53, 282.04 1.31, 411.61 0 M411.61 0 C433.81 1.92, 441.96 11.32, 443.61 32 M411.61 0 C431.56 -0.39, 443.4 12.49, 443.61 32 M443.61 32 C441.7 74.48, 443.2 116.51, 443.61 168.25 M443.61 32 C444.9 72.72, 444.02 114.48, 443.61 168.25 M443.61 168.25 C443.39 188.31, 434.67 201.35, 411.61 200.25 M443.61 168.25 C441.37 187.94, 431.14 202.11, 411.61 200.25 M411.61 200.25 C299.36 202.39, 186.12 201.6, 32 200.25 M411.61 200.25 C283.17 200.18, 155.08 199.79, 32 200.25 M32 200.25 C10.07 199.44, 1.69 188.81, 0 168.25 M32 200.25 C8.52 199.65, -0.92 191.28, 0 168.25 M0 168.25 C-0.52 120.65, -2.1 71.53, 0 32 M0 168.25 C1.37 122.24, 1.72 75.35, 0 32 M0 32 C1.51 9.69, 11.8 -1.47, 32 0 M0 32 C-0.82 12.24, 10.66 -0.67, 32 0" stroke="#f08c00" stroke-width="4" fill="none"></path></g><g stroke-opacity="0.9" fill-opacity="0.9" transform="translate(3624.6490022510916 1899.9812269844915) rotate(0 126.96990966796875 37.5)"><text x="126.96990966796875" y="17.52" font-family="Virgil, Segoe UI Emoji" font-size="20px" fill="#f08c00" text-anchor="middle" style="white-space: pre;" direction="ltr" dominant-baseline="alphabetic">MyStaker</text><text x="126.96990966796875" y="42.519999999999996" font-family="Virgil, Segoe UI Emoji" font-size="20px" fill="#f08c00" text-anchor="middle" style="white-space: pre;" direction="ltr" dominant-baseline="alphabetic">+ address oprator = 0xC</text><text x="126.96990966796875" y="67.52" font-family="Virgil, Segoe UI Emoji" font-size="20px" fill="#f08c00" text-anchor="middle" style="white-space: pre;" direction="ltr" dominant-baseline="alphabetic">+ depositAndDelegate()</text></g><g stroke-opacity="0.9" fill-opacity="0.9" transform="translate(4045.6034150228115 1521.5160033835236) rotate(0 11.759986877441406 12.5)"><text x="11.759986877441406" y="17.52" font-family="Virgil, Segoe UI Emoji" font-size="20px" fill="#f08c00" text-anchor="middle" style="white-space: pre;" direction="ltr" dominant-baseline="alphabetic">ms</text></g><g stroke-opacity="0.9" fill-opacity="0.9" transform="translate(3178.5370657277017 1356.1392320176774) rotate(0 11.759986877441406 12.5)"><text x="11.759986877441406" y="17.52" font-family="Virgil, Segoe UI Emoji" font-size="20px" fill="#f08c00" text-anchor="middle" style="white-space: pre;" direction="ltr" dominant-baseline="alphabetic">ms</text></g><g stroke-opacity="0.9" fill-opacity="0.9" transform="translate(3329.857288620864 1435.0959636534662) rotate(0 50.539947509765625 25)"><text x="0" y="17.52" font-family="Virgil, Segoe UI Emoji" font-size="20px" fill="#f08c00" text-anchor="start" style="white-space: pre;" direction="ltr" dominant-baseline="alphabetic">msg.sender</text><text x="0" y="42.519999999999996" font-family="Virgil, Segoe UI Emoji" font-size="20px" fill="#f08c00" text-anchor="start" style="white-space: pre;" direction="ltr" dominant-baseline="alphabetic"></text></g><g stroke-linecap="round"><g stroke-opacity="0.9" fill-opacity="0.9" transform="translate(3667.161392434855 1503.852237607421) rotate(0 241.96152948251256 -266.2236519309365)"><path d="M-0.71 0.03 C79.73 -89.02, 402.83 -444.82, 483.71 -533.39" stroke="#1e1e1e" stroke-width="4.5" fill="none" stroke-dasharray="1.5 10"></path></g></g><mask></mask><g stroke-linecap="round"><g stroke-opacity="0.9" fill-opacity="0.9" transform="translate(3820.873505296623 1683.0999921701027) rotate(0 234.31392373261815 -270.7317542622345)"><path d="M0.97 0.33 C79.02 -90.18, 389.97 -452.1, 468.09 -542.38" stroke="#1e1e1e" stroke-width="4.5" fill="none" stroke-dasharray="1.5 10"></path></g></g><mask></mask><g stroke-linecap="round"><g stroke-opacity="0.9" fill-opacity="0.9" transform="translate(3981.7250660505433 1890.4602964685719) rotate(0 245.87380520518036 -294.0907549793294)"><path d="M0.32 0.21 C82.25 -97.74, 409.25 -489.5, 491.06 -587.51" stroke="#1e1e1e" stroke-width="4.5" fill="none" stroke-dasharray="1.5 10"></path></g></g><mask></mask><g stroke-linecap="round"><g stroke-opacity="0.9" fill-opacity="0.9" transform="translate(3096.808327074271 2184.5972400231467) rotate(0 139.66220317780653 -153.09394396912944)"><path d="M1.03 -0.16 C47.75 -51.17, 232.97 -255.94, 279.46 -307.03" stroke="#1971c2" stroke-width="4.5" fill="none" stroke-dasharray="1.5 10"></path></g></g><mask></mask><g stroke-linecap="round"><g stroke-opacity="0.9" fill-opacity="0.9" transform="translate(2123.1082386815606 1691.314471778936) rotate(0 169.3641414046865 -3.207976085311884)"><path d="M-0.21 0.12 C56.22 -0.79, 280.92 -4.8, 337.53 -5.89" stroke="#1971c2" stroke-width="4.5" fill="none" stroke-dasharray="1.5 10"></path></g><g stroke-opacity="0.9" fill-opacity="0.9" transform="translate(2123.1082386815606 1691.314471778936) rotate(0 169.3641414046865 -3.207976085311884)"><path d="M314.2 3.09 C319.37 -0.76, 324.96 0.54, 337.53 -5.89" stroke="#1971c2" stroke-width="4.5" fill="none" stroke-dasharray="1.5 8"></path></g><g stroke-opacity="0.9" fill-opacity="0.9" transform="translate(2123.1082386815606 1691.314471778936) rotate(0 169.3641414046865 -3.207976085311884)"><path d="M313.89 -14.01 C319.06 -14.25, 324.72 -9.33, 337.53 -5.89" stroke="#1971c2" stroke-width="4.5" fill="none" stroke-dasharray="1.5 8"></path></g></g><mask></mask><g stroke-opacity="0.9" fill-opacity="0.9" stroke-linecap="round" transform="translate(10 442.0129357118549) rotate(0 107.09051898675261 97.76107085026456)"><path d="M119.58 1.49 C132.01 1.09, 145.35 5.23, 156.78 10.51 C168.2 15.78, 179.66 24.28, 188.13 33.15 C196.6 42.03, 203.31 52.62, 207.59 63.76 C211.88 74.9, 213.96 88.35, 213.85 99.98 C213.74 111.62, 211.63 122.86, 206.92 133.57 C202.21 144.27, 194.48 155.4, 185.58 164.21 C176.68 173.02, 165.08 181.25, 153.52 186.44 C141.95 191.64, 129.01 194.56, 116.19 195.37 C103.36 196.19, 88.97 194.68, 76.55 191.31 C64.12 187.94, 51.7 182.29, 41.63 175.16 C31.56 168.02, 22.89 158.6, 16.12 148.52 C9.34 138.44, 3.45 126.39, 0.98 114.69 C-1.5 102.98, -1.43 90.08, 1.27 78.3 C3.98 66.52, 10.02 54.06, 17.2 43.99 C24.38 33.93, 34 24.86, 44.36 17.94 C54.72 11.02, 66.48 5.43, 79.36 2.47 C92.24 -0.5, 114.2 0.01, 121.64 0.16 C129.09 0.3, 124.17 1.76, 124.05 3.35 M143.91 5.05 C156.1 7.44, 168.68 15.18, 178.37 23.11 C188.05 31.05, 196.08 41.92, 202.02 52.65 C207.96 63.38, 212.54 75.54, 214.02 87.48 C215.49 99.41, 214.13 113.07, 210.88 124.23 C207.63 135.4, 202.42 145.31, 194.53 154.44 C186.65 163.58, 174.36 172.38, 163.56 179.06 C152.77 185.74, 142.37 191.85, 129.77 194.52 C117.16 197.18, 100.72 197.07, 87.92 195.06 C75.12 193.05, 63.68 188.48, 52.97 182.45 C42.25 176.42, 31.7 168.1, 23.62 158.88 C15.55 149.66, 8.46 138.76, 4.53 127.15 C0.59 115.54, -0.83 101.24, 0.03 89.2 C0.89 77.16, 3.94 65.55, 9.7 54.91 C15.46 44.28, 25 33.25, 34.57 25.39 C44.15 17.53, 55.55 12.23, 67.16 7.76 C78.76 3.29, 91.53 -0.95, 104.19 -1.44 C116.84 -1.94, 136.7 3.19, 143.06 4.78 C149.42 6.37, 142.66 6.6, 142.36 8.1" stroke="none" stroke-width="0" fill="#fefffe"></path><path d="M119.34 1.11 C131.92 0.98, 146.26 5.62, 157.65 10.88 C169.04 16.14, 179.43 23.87, 187.69 32.67 C195.96 41.47, 202.8 52.66, 207.27 63.67 C211.74 74.69, 214.63 86.83, 214.51 98.76 C214.38 110.7, 211.48 124.27, 206.53 135.3 C201.59 146.34, 193.69 156.41, 184.84 164.98 C175.99 173.54, 164.96 181.81, 153.45 186.69 C141.94 191.58, 128.62 193.55, 115.78 194.31 C102.93 195.07, 88.76 194.66, 76.37 191.27 C63.98 187.88, 51.76 181.19, 41.45 173.97 C31.14 166.74, 21.27 157.8, 14.52 147.91 C7.77 138.01, 3.07 126.37, 0.97 114.61 C-1.12 102.85, -0.78 89.16, 1.94 77.35 C4.66 65.54, 10.28 53.42, 17.28 43.75 C24.28 34.07, 33.58 25.92, 43.93 19.32 C54.28 12.72, 66.06 7.16, 79.4 4.14 C92.73 1.12, 115.81 1.05, 123.96 1.19 C132.11 1.34, 128.59 3.35, 128.31 5 M122.54 -0.41 C135.01 -0.44, 148.92 5.56, 159.8 11.51 C170.68 17.46, 179.62 26.4, 187.83 35.29 C196.03 44.18, 204.59 53.72, 209.04 64.85 C213.49 75.99, 215.33 90.09, 214.54 102.07 C213.75 114.05, 209.29 125.89, 204.3 136.73 C199.31 147.57, 193.37 158.89, 184.6 167.11 C175.83 175.33, 163.67 181.34, 151.68 186.05 C139.69 190.77, 125.48 194.44, 112.68 195.41 C99.88 196.38, 87.11 195.77, 74.88 191.86 C62.65 187.95, 49.48 179.85, 39.32 171.96 C29.16 164.07, 20.28 154.65, 13.92 144.51 C7.57 134.37, 3.08 122.68, 1.2 111.13 C-0.69 99.59, -0.31 86.54, 2.59 75.22 C5.49 63.9, 11.6 52.69, 18.6 43.21 C25.61 33.74, 34.3 25.23, 44.62 18.38 C54.95 11.54, 67.8 5.21, 80.55 2.14 C93.3 -0.92, 114.18 0.03, 121.14 0.01 C128.09 0, 122.51 0.19, 122.26 2.03" stroke="#1e1e1e" stroke-width="4" fill="none"></path></g><g stroke-opacity="0.9" fill-opacity="0.9" transform="translate(83.82611641248423 527.1464904278391) rotate(0 33.03997039794922 12.5)"><text x="33.03997039794922" y="17.52" font-family="Virgil, Segoe UI Emoji" font-size="20px" fill="#1e1e1e" text-anchor="middle" style="white-space: pre;" direction="ltr" dominant-baseline="alphabetic">Staker</text></g><g stroke-opacity="0.9" fill-opacity="0.9" stroke-linecap="round" transform="translate(548.4860930239774 423.2159489483529) rotate(0 198.2044706898114 111.66565973740217)"><path d="M32 0 C141.17 1.69, 246.91 -1.64, 364.41 0 C388.48 0.35, 396.57 10.17, 396.41 32 C394.9 76.57, 396.35 118.28, 396.41 191.33 C398.17 215.93, 386.24 224.75, 364.41 223.33 C268.37 226.17, 166.3 225.84, 32 223.33 C7.52 223.43, 0.91 209.1, 0 191.33 C-0.54 135.86, -0.24 79.64, 0 32 C0.2 12.81, 7.38 2.55, 32 0" stroke="none" stroke-width="0" fill="#fefffe"></path><path d="M32 0 C139.56 2.89, 247.64 1.89, 364.41 0 M32 0 C133.85 1.17, 235.84 1.18, 364.41 0 M364.41 0 C386.66 0.05, 396.34 11.65, 396.41 32 M364.41 0 C387.1 2.03, 394.22 12.01, 396.41 32 M396.41 32 C396.4 80.67, 396.31 129.63, 396.41 191.33 M396.41 32 C394.54 74.9, 396.19 118.01, 396.41 191.33 M396.41 191.33 C398.22 211.74, 385.55 221.34, 364.41 223.33 M396.41 191.33 C398.42 211.73, 386.08 223.94, 364.41 223.33 M364.41 223.33 C249.91 226.64, 137.23 224.44, 32 223.33 M364.41 223.33 C253.14 221.81, 140.99 221.64, 32 223.33 M32 223.33 C12.31 224.3, 0.83 211.53, 0 191.33 M32 223.33 C10.46 223.38, 1.66 214.47, 0 191.33 M0 191.33 C-0.37 143.17, 0.44 94.75, 0 32 M0 191.33 C-1.19 153.17, -1.16 113.43, 0 32 M0 32 C0.03 9.56, 12.57 -0.99, 32 0 M0 32 C-0.09 11.5, 10.68 -1.84, 32 0" stroke="#1e1e1e" stroke-width="4" fill="none"></path></g><g stroke-opacity="0.9" fill-opacity="0.9" transform="translate(594.0506711356638 522.381608685755) rotate(0 152.639892578125 12.5)"><text x="152.639892578125" y="17.52" font-family="Virgil, Segoe UI Emoji" font-size="20px" fill="#1e1e1e" text-anchor="middle" style="white-space: pre;" direction="ltr" dominant-baseline="alphabetic">contract FundManager @ Base</text></g><g stroke-opacity="0.9" fill-opacity="0.9" stroke-linecap="round" transform="translate(1295.9095929266223 139.04227495919986) rotate(0 225.55267518754908 119.16880643650438)"><path d="M32 0 C185.29 2.02, 335.46 1.53, 419.11 0 C439.3 2.41, 453.25 7.24, 451.11 32 C451.14 96.4, 449.88 155.67, 451.11 206.34 C450.96 229.2, 441.6 241.8, 419.11 238.34 C277.06 240.4, 139.25 238.25, 32 238.34 C12.27 235.16, -0.24 224.6, 0 206.34 C2.62 158.93, -0.87 109.79, 0 32 C-0.79 8.3, 9.96 -2.42, 32 0" stroke="none" stroke-width="0" fill="#fefffe"></path><path d="M32 0 C167.7 -0.23, 302.74 -0.12, 419.11 0 M32 0 C161.83 -0.79, 291.1 -0.51, 419.11 0 M419.11 0 C441.62 1.76, 449.2 11.83, 451.11 32 M419.11 0 C440.48 1.26, 449.61 9.65, 451.11 32 M451.11 32 C449.68 88.49, 450.51 145.41, 451.11 206.34 M451.11 32 C453.24 78.61, 452.24 125.15, 451.11 206.34 M451.11 206.34 C452.86 226.86, 440.73 238.86, 419.11 238.34 M451.11 206.34 C452.05 226.77, 442.63 236.41, 419.11 238.34 M419.11 238.34 C270.31 237.11, 119.78 236.93, 32 238.34 M419.11 238.34 C290.33 238.83, 160.83 238.21, 32 238.34 M32 238.34 C10.49 238.38, 1.44 229.24, 0 206.34 M32 238.34 C10.73 236.09, 0.01 225.46, 0 206.34 M0 206.34 C-0.16 153.76, 1.12 98.63, 0 32 M0 206.34 C1.48 143.37, 2.42 81.01, 0 32 M0 32 C-0.08 11.39, 10.68 -1.6, 32 0 M0 32 C0.5 10.69, 10.98 2.11, 32 0" stroke="#1e1e1e" stroke-width="4" fill="none"></path></g><g stroke-opacity="0.9" fill-opacity="0.9" transform="translate(1337.2024109364374 245.71108139570424) rotate(0 184.25985717773438 12.5)"><text x="184.25985717773438" y="17.52" font-family="Virgil, Segoe UI Emoji" font-size="20px" fill="#1e1e1e" text-anchor="middle" style="white-space: pre;" direction="ltr" dominant-baseline="alphabetic">3rd party AMB: LayerZero, Hyperlane</text></g><g stroke-opacity="0.9" fill-opacity="0.9" stroke-linecap="round" transform="translate(1359.1900438978028 661.1165815329296) rotate(0 214.64903185750882 119.80699471462867)"><path d="M32 0 C144.4 2.07, 259.57 -1.58, 397.3 0 C420.45 -1.98, 430.09 12.43, 429.3 32 C429.59 102.16, 430.9 172.72, 429.3 207.61 C431.54 226.98, 420.4 236.47, 397.3 239.61 C287.73 233.57, 176.01 233.63, 32 239.61 C10.1 236.84, -1.89 229.15, 0 207.61 C2.09 142.12, 2.18 78.94, 0 32 C0.92 7.36, 10.25 -0.41, 32 0" stroke="none" stroke-width="0" fill="#fefffe"></path><path d="M32 0 C118.44 0.14, 204.45 1.83, 397.3 0 M32 0 C142.87 -0.58, 252.41 -0.76, 397.3 0 M397.3 0 C418.66 1.09, 428 9.78, 429.3 32 M397.3 0 C419.34 -1.12, 431.05 10, 429.3 32 M429.3 32 C428.92 75.92, 428.73 118.82, 429.3 207.61 M429.3 32 C430.01 76.15, 429.28 121.37, 429.3 207.61 M429.3 207.61 C430.12 228.16, 420.53 237.94, 397.3 239.61 M429.3 207.61 C431.26 228.18, 416.87 240.43, 397.3 239.61 M397.3 239.61 C272.08 239.39, 146.13 241.31, 32 239.61 M397.3 239.61 C269.89 238.34, 143.04 238.81, 32 239.61 M32 239.61 C10.72 237.66, 0.01 227.02, 0 207.61 M32 239.61 C10.76 238.33, -0.12 227.64, 0 207.61 M0 207.61 C1.03 149.72, -0.95 95.22, 0 32 M0 207.61 C-1.71 164.98, -1.67 120.81, 0 32 M0 32 C0.43 10.69, 10.94 1.84, 32 0 M0 32 C2.11 11.67, 9.65 1.75, 32 0" stroke="#1e1e1e" stroke-width="4" fill="none"></path></g><g stroke-opacity="0.9" fill-opacity="0.9" transform="translate(1366.2692515365616 768.4235762475582) rotate(0 207.56982421875 12.5)"><text x="207.56982421875" y="17.52" font-family="Virgil, Segoe UI Emoji" font-size="20px" fill="#1e1e1e" text-anchor="middle" style="white-space: pre;" direction="ltr" dominant-baseline="alphabetic">3rd party Liquidity Bridge: HOP, Stargate</text></g><g mask="url(#mask-oVrVgMD2ca1B0NVEkelTm)" stroke-linecap="round"><g stroke-opacity="0.9" fill-opacity="0.9" transform="translate(237.96885395810386 537.5984161204033) rotate(0 153.2589490087339 -1.981105792282051)"><path d="M0.55 0.03 C51.81 -0.6, 255.36 -2.88, 306.48 -3.37 M-0.62 -1 C50.57 -2.02, 254.26 -4.57, 305.51 -5.18" stroke="#1e1e1e" stroke-width="4" fill="none"></path></g><g stroke-opacity="0.9" fill-opacity="0.9" transform="translate(237.96885395810386 537.5984161204033) rotate(0 153.2589490087339 -1.981105792282051)"><path d="M282.12 3.66 C287.06 1.62, 292.91 1.01, 305.51 -5.18 M282.12 3.66 C291.3 0.64, 299.71 -3.78, 305.51 -5.18" stroke="#1e1e1e" stroke-width="4" fill="none"></path></g><g stroke-opacity="0.9" fill-opacity="0.9" transform="translate(237.96885395810386 537.5984161204033) rotate(0 153.2589490087339 -1.981105792282051)"><path d="M281.91 -13.44 C286.95 -11.88, 292.85 -8.9, 305.51 -5.18 M281.91 -13.44 C291.01 -9.82, 299.5 -7.61, 305.51 -5.18" stroke="#1e1e1e" stroke-width="4" fill="none"></path></g></g><mask id="mask-oVrVgMD2ca1B0NVEkelTm"><rect x="0" y="0" fill="#fff" width="644.4867519755717" height="641.5606277049674"></rect><rect x="306.7178771245526" y="523.1173103281212" fill="#000" width="169.0198516845703" height="25" opacity="1"></rect></mask><g stroke-opacity="0.9" fill-opacity="0.9" transform="translate(306.7178771245526 523.1173103281217) rotate(0 84.17984020583299 11.90538492687051)"><text x="84.50992584228516" y="17.52" font-family="Virgil, Segoe UI Emoji" font-size="20px" fill="#1e1e1e" text-anchor="middle" style="white-space: pre;" direction="ltr" dominant-baseline="alphabetic">0. deposit(USDC)</text></g><g mask="url(#mask-_Xlb_CwcMBBKicI-iLbhX)" stroke-linecap="round"><g stroke-opacity="0.9" fill-opacity="0.9" transform="translate(961.4747384774746 542.627455000893) rotate(0 194.4961953781576 106.21015812388214)"><path d="M0.71 1.06 C65.36 36.48, 323.13 177.78, 387.85 213.12 M-0.38 0.57 C64.62 35.59, 325.19 176.28, 389.96 211.36" stroke="#1e1e1e" stroke-width="4" fill="none"></path></g><g stroke-opacity="0.9" fill-opacity="0.9" transform="translate(961.4747384774746 542.627455000893) rotate(0 194.4961953781576 106.21015812388214)"><path d="M365.23 207.71 C374.34 206.75, 381.08 209.77, 389.96 211.36 M365.23 207.71 C374.29 208.63, 383.51 210.12, 389.96 211.36" stroke="#1e1e1e" stroke-width="4" fill="none"></path></g><g stroke-opacity="0.9" fill-opacity="0.9" transform="translate(961.4747384774746 542.627455000893) rotate(0 194.4961953781576 106.21015812388214)"><path d="M373.36 192.67 C380.14 196.21, 384.47 203.69, 389.96 211.36 M373.36 192.67 C379.44 198.89, 385.78 205.72, 389.96 211.36" stroke="#1e1e1e" stroke-width="4" fill="none"></path></g></g><mask id="mask-_Xlb_CwcMBBKicI-iLbhX"><rect x="0" y="0" fill="#fff" width="1450.4671292337898" height="855.0477712486572"></rect><rect x="1037.7810229669603" y="623.8376131247751" fill="#000" width="236.37982177734375" height="50" opacity="1"></rect></mask><g stroke-opacity="0.9" fill-opacity="0.9" transform="translate(1037.7810229669603 623.8376131247751) rotate(0 118.48511848680664 25.633572637811312)"><text x="118.18991088867188" y="17.52" font-family="Virgil, Segoe UI Emoji" font-size="20px" fill="#1e1e1e" text-anchor="middle" style="white-space: pre;" direction="ltr" dominant-baseline="alphabetic">4. Transfer ETH to </text><text x="118.18991088867188" y="42.519999999999996" font-family="Virgil, Segoe UI Emoji" font-size="20px" fill="#1e1e1e" text-anchor="middle" style="white-space: pre;" direction="ltr" dominant-baseline="alphabetic">FundManger @ Ethereum</text></g><g mask="url(#mask-kZU6tYM25yGAwLX6X_hvv)" stroke-linecap="round"><g stroke-opacity="0.9" fill-opacity="0.9" transform="translate(965.2833382694189 544.4291111823313) rotate(0 157.85027510443433 -143.40181347125736)"><path d="M0.02 0.66 C52.7 -47.35, 262.25 -239.33, 314.92 -287.33 M-1.43 -0.04 C51.73 -47.95, 264.4 -238.35, 317.22 -286.08" stroke="#1e1e1e" stroke-width="4" fill="none"></path></g><g stroke-opacity="0.9" fill-opacity="0.9" transform="translate(965.2833382694189 544.4291111823313) rotate(0 157.85027510443433 -143.40181347125736)"><path d="M305.47 -264.01 C308.84 -269.83, 309.27 -272.44, 317.22 -286.08 M305.47 -264.01 C307.67 -269.39, 310.26 -275.37, 317.22 -286.08" stroke="#1e1e1e" stroke-width="4" fill="none"></path></g><g stroke-opacity="0.9" fill-opacity="0.9" transform="translate(965.2833382694189 544.4291111823313) rotate(0 157.85027510443433 -143.40181347125736)"><path d="M294.04 -276.73 C299.83 -279.95, 302.59 -279.95, 317.22 -286.08 M294.04 -276.73 C299.21 -278.88, 304.67 -281.66, 317.22 -286.08" stroke="#1e1e1e" stroke-width="4" fill="none"></path></g></g><mask id="mask-kZU6tYM25yGAwLX6X_hvv"><rect x="0" y="0" fill="#fff" width="1380.9838884782876" height="931.232738124846"></rect><rect x="1027.873687531568" y="376.02729771107397" fill="#000" width="190.5198516845703" height="50" opacity="1"></rect></mask><g stroke-opacity="0.9" fill-opacity="0.9" transform="translate(1027.873687531568 376.0272977110744) rotate(0 95.30667713455841 25.062766345217938)"><text x="95.25992584228516" y="17.52" font-family="Virgil, Segoe UI Emoji" font-size="20px" fill="#1e1e1e" text-anchor="middle" style="white-space: pre;" direction="ltr" dominant-baseline="alphabetic">3. Stakers shares </text><text x="95.25992584228516" y="42.519999999999996" font-family="Virgil, Segoe UI Emoji" font-size="20px" fill="#1e1e1e" text-anchor="middle" style="white-space: pre;" direction="ltr" dominant-baseline="alphabetic">update message</text></g><g mask="url(#mask-Q6aKrTD6QR4g0hqPqBR0S)" stroke-linecap="round"><g stroke-opacity="0.9" fill-opacity="0.9" transform="translate(1760.9006048055144 265.1043726655503) rotate(0 476.46661900977597 690.9081221229578)"><path d="M0.37 -0.58 C159.47 229.75, 795.2 1151.04, 953.84 1381.47 M-0.9 1.72 C158.2 232.28, 794.71 1152.55, 953.38 1382.83" stroke="#1e1e1e" stroke-width="4" fill="none"></path></g><g stroke-opacity="0.9" fill-opacity="0.9" transform="translate(1760.9006048055144 265.1043726655503) rotate(0 476.46661900977597 690.9081221229578)"><path d="M932.99 1368.35 C936.74 1373.21, 941.93 1373.93, 953.38 1382.83 M932.99 1368.35 C939.94 1372.54, 946.52 1377.01, 953.38 1382.83" stroke="#1e1e1e" stroke-width="4" fill="none"></path></g><g stroke-opacity="0.9" fill-opacity="0.9" transform="translate(1760.9006048055144 265.1043726655503) rotate(0 476.46661900977597 690.9081221229578)"><path d="M947.06 1358.64 C947.47 1365.82, 949.35 1368.83, 953.38 1382.83 M947.06 1358.64 C949.52 1365.83, 951.69 1373.33, 953.38 1382.83" stroke="#1e1e1e" stroke-width="4" fill="none"></path></g></g><mask id="mask-Q6aKrTD6QR4g0hqPqBR0S"><rect x="0" y="0" fill="#fff" width="2813.8338428250663" height="1746.920616911466"></rect><rect x="2069.317358092634" y="943.5124947885083" fill="#000" width="336.0997314453125" height="25" opacity="1"></rect></mask><g stroke-opacity="0.9" fill-opacity="0.9" transform="translate(2069.317358092635 943.5124947885088) rotate(0 168.05680277548754 12.712498861923564)"><text x="168.04986572265625" y="17.52" font-family="Virgil, Segoe UI Emoji" font-size="20px" fill="#1e1e1e" text-anchor="middle" style="white-space: pre;" direction="ltr" dominant-baseline="alphabetic">5. Update of the stakers states</text></g><g mask="url(#mask-vgIXVHtbW9tOv2NoA30ug)" stroke-linecap="round"><g stroke-opacity="0.9" fill-opacity="0.9" transform="translate(1806.6770299219497 806.609667615634) rotate(0 329.1897223814881 431.0386649374436)"><path d="M-0.7 0.15 C108.69 143.83, 547.26 718.14, 657.25 861.72 M1.14 -0.81 C110.8 143.07, 549.74 719.15, 659.36 863.07" stroke="#1e1e1e" stroke-width="4" fill="none"></path></g><g stroke-opacity="0.9" fill-opacity="0.9" transform="translate(1806.6770299219497 806.609667615634) rotate(0 329.1897223814881 431.0386649374436)"><path d="M638.32 849.56 C646.45 852.87, 653.51 861.25, 659.36 863.07 M638.32 849.56 C643.83 852.18, 650.27 856.28, 659.36 863.07" stroke="#1e1e1e" stroke-width="4" fill="none"></path></g><g stroke-opacity="0.9" fill-opacity="0.9" transform="translate(1806.6770299219497 806.609667615634) rotate(0 329.1897223814881 431.0386649374436)"><path d="M651.93 839.2 C654.91 846.32, 656.85 858.6, 659.36 863.07 M651.93 839.2 C653.98 844.45, 656.89 851.25, 659.36 863.07" stroke="#1e1e1e" stroke-width="4" fill="none"></path></g></g><mask id="mask-vgIXVHtbW9tOv2NoA30ug"><rect x="0" y="0" fill="#fff" width="2565.056474684926" height="1768.6869974905212"></rect><rect x="2052.5568234093953" y="1225.1483325530776" fill="#000" width="166.61985778808594" height="25" opacity="1"></rect></mask><g stroke-opacity="0.9" fill-opacity="0.9" transform="translate(2052.5568234093953 1225.1483325530771) rotate(0 83.45379666797771 12.588992666676631)"><text x="83.30992889404297" y="17.52" font-family="Virgil, Segoe UI Emoji" font-size="20px" fill="#1e1e1e" text-anchor="middle" style="white-space: pre;" direction="ltr" dominant-baseline="alphabetic">6. transfer(ETH)</text></g><g stroke-opacity="0.9" fill-opacity="0.9" stroke-linecap="round" transform="translate(580.8186982429634 10) rotate(0 194.23509226385931 109.48950856704732)"><path d="M32 0 C97.07 1.44, 162.07 1.65, 356.47 0 C375.91 0.2, 390.61 7.38, 388.47 32 C387.15 87.04, 388.78 143.62, 388.47 186.98 C388.05 207.91, 378.91 219.6, 356.47 218.98 C250.09 219.42, 145.38 223.86, 32 218.98 C12.95 216.23, 2.24 210.27, 0 186.98 C-1.89 135.24, -2.49 75.35, 0 32 C-1.89 9.1, 12.74 -2.8, 32 0" stroke="none" stroke-width="0" fill="#fefffe"></path><path d="M32 0 C98.14 -0.33, 164.74 -1.72, 356.47 0 M32 0 C97.16 1.09, 162.4 0.64, 356.47 0 M356.47 0 C379.71 -1.67, 390.18 10, 388.47 32 M356.47 0 C376.04 0.81, 389.48 8.88, 388.47 32 M388.47 32 C389.18 84.67, 389.97 134.87, 388.47 186.98 M388.47 32 C389.05 70.51, 388.36 106.48, 388.47 186.98 M388.47 186.98 C388.48 206.39, 377.88 217.86, 356.47 218.98 M388.47 186.98 C388.35 207.01, 378.27 219.15, 356.47 218.98 M356.47 218.98 C286.78 217.11, 217.46 218.41, 32 218.98 M356.47 218.98 C275.27 219.24, 194.22 219.8, 32 218.98 M32 218.98 C10.94 220.82, 1.84 209.18, 0 186.98 M32 218.98 C9.65 220.73, 0.22 208.41, 0 186.98 M0 186.98 C1.68 140.7, 1.5 97.14, 0 32 M0 186.98 C-0.62 137.48, -0.8 87.63, 0 32 M0 32 C0.65 12.59, 11.91 -1.09, 32 0 M0 32 C1.13 8.66, 10.73 0.58, 32 0" stroke="#1e1e1e" stroke-width="4" fill="none"></path></g><g stroke-opacity="0.9" fill-opacity="0.9" transform="translate(729.3138155312372 106.98950856704687) rotate(0 45.73997497558594 12.5)"><text x="45.73997497558594" y="17.52" font-family="Virgil, Segoe UI Emoji" font-size="20px" fill="#1e1e1e" text-anchor="middle" style="white-space: pre;" direction="ltr" dominant-baseline="alphabetic">UNISWAP</text></g><g mask="url(#mask-skS87D1IoKqxuHg36zZH0)" stroke-linecap="round"><g stroke-opacity="0.9" fill-opacity="0.9" transform="translate(903.20104588494 412.0506724808456) rotate(0 -2.594882118248279 -93.0346896521678)"><path d="M-0.11 -1.19 C-0.99 -32.19, -3.32 -155.79, -4.14 -186.55 M-1.63 0.79 C-2.67 -30, -3.86 -154.43, -4.54 -185.27" stroke="#1e1e1e" stroke-width="4" fill="none"></path></g><g stroke-opacity="0.9" fill-opacity="0.9" transform="translate(903.20104588494 412.0506724808456) rotate(0 -2.594882118248279 -93.0346896521678)"><path d="M4.37 -161.91 C-0.99 -169.3, -3.29 -179.88, -4.54 -185.27 M4.37 -161.91 C2.32 -170.41, -0.68 -177.52, -4.54 -185.27" stroke="#1e1e1e" stroke-width="4" fill="none"></path></g><g stroke-opacity="0.9" fill-opacity="0.9" transform="translate(903.20104588494 412.0506724808456) rotate(0 -2.594882118248279 -93.0346896521678)"><path d="M-12.73 -161.65 C-11.41 -169.12, -7.03 -179.81, -4.54 -185.27 M-12.73 -161.65 C-9.2 -170.16, -6.63 -177.37, -4.54 -185.27" stroke="#1e1e1e" stroke-width="4" fill="none"></path></g></g><mask id="mask-skS87D1IoKqxuHg36zZH0"><rect x="0" y="0" fill="#fff" width="1008.3908101214365" height="698.1200517851812"></rect><rect x="794.7762306001878" y="306.5159828286778" fill="#000" width="211.6598663330078" height="25" opacity="1"></rect></mask><g stroke-opacity="0.9" fill-opacity="0.9" transform="translate(794.7762306001878 306.5159828286778) rotate(0 106.09931937269903 12.654055107310455)"><text x="105.8299331665039" y="17.52" font-family="Virgil, Segoe UI Emoji" font-size="20px" fill="#1e1e1e" text-anchor="middle" style="white-space: pre;" direction="ltr" dominant-baseline="alphabetic">2. swap (USDC, ETH)</text></g><g mask="url(#mask-UJGEqEIo0divqJKN9FytA)" stroke-linecap="round"><g stroke-opacity="0.9" fill-opacity="0.9" transform="translate(2568.0364558156853 1631.5149319213) rotate(0 -381.1404855587757 -468.9842719441283)"><path d="M0.17 0.32 C-126.97 -156.01, -634.9 -781.89, -761.79 -938.44 M-1.19 -0.57 C-128.54 -156.68, -635.79 -780.88, -762.48 -937.15" stroke="#1e1e1e" stroke-width="4" fill="none"></path></g><g stroke-opacity="0.9" fill-opacity="0.9" transform="translate(2568.0364558156853 1631.5149319213) rotate(0 -381.1404855587757 -468.9842719441283)"><path d="M-741.03 -924.3 C-748.77 -928.43, -758.38 -932.32, -762.48 -937.15 M-741.03 -924.3 C-746.55 -926.8, -749.98 -930.7, -762.48 -937.15" stroke="#1e1e1e" stroke-width="4" fill="none"></path></g><g stroke-opacity="0.9" fill-opacity="0.9" transform="translate(2568.0364558156853 1631.5149319213) rotate(0 -381.1404855587757 -468.9842719441283)"><path d="M-754.31 -913.52 C-756.85 -921.84, -761.33 -929.92, -762.48 -937.15 M-754.31 -913.52 C-757.05 -918.31, -757.61 -924.54, -762.48 -937.15" stroke="#1e1e1e" stroke-width="4" fill="none"></path></g></g><mask id="mask-UJGEqEIo0divqJKN9FytA"><rect x="0" y="0" fill="#fff" width="3430.3174269332367" height="2669.4834758095567"></rect><rect x="1974.1561173516366" y="1150.030659977172" fill="#000" width="425.4797058105469" height="25" opacity="1"></rect></mask><g stroke-opacity="0.9" fill-opacity="0.9" transform="translate(1974.1561173516366 1150.030659977172) rotate(0 212.72869088016432 12.422554262355106)"><text x="212.73985290527344" y="17.52" font-family="Virgil, Segoe UI Emoji" font-size="20px" fill="#1e1e1e" text-anchor="middle" style="white-space: pre;" direction="ltr" dominant-baseline="alphabetic">13. transfer(ETH) to FundManager @ Base</text></g><g mask="url(#mask-JNitSjWtPBlQdd_jPCCaP)" stroke-linecap="round"><g stroke-opacity="0.9" fill-opacity="0.9" transform="translate(1345.056847139127 853.891956912008) rotate(0 -202.3064458736285 -96.33363768781555)"><path d="M1.14 -1 C-66.21 -33.1, -335.81 -161.19, -403.59 -193.07 M0.28 1.08 C-67.18 -30.81, -336.76 -159.16, -404 -191.74" stroke="#1e1e1e" stroke-width="4" fill="none"></path></g><g stroke-opacity="0.9" fill-opacity="0.9" transform="translate(1345.056847139127 853.891956912008) rotate(0 -202.3064458736285 -96.33363768781555)"><path d="M-379.12 -189.29 C-389.27 -188.18, -396.74 -192.26, -404 -191.74 M-379.12 -189.29 C-387.18 -189.96, -396.53 -191.03, -404 -191.74" stroke="#1e1e1e" stroke-width="4" fill="none"></path></g><g stroke-opacity="0.9" fill-opacity="0.9" transform="translate(1345.056847139127 853.891956912008) rotate(0 -202.3064458736285 -96.33363768781555)"><path d="M-386.51 -173.87 C-394.08 -178.09, -399.03 -187.43, -404 -191.74 M-386.51 -173.87 C-392.16 -179.66, -399.03 -185.9, -404 -191.74" stroke="#1e1e1e" stroke-width="4" fill="none"></path></g></g><mask id="mask-JNitSjWtPBlQdd_jPCCaP"><rect x="0" y="0" fill="#fff" width="1849.669738886384" height="1146.5592322876391"></rect><rect x="1056.7304732869834" y="745.0583192241925" fill="#000" width="172.03985595703125" height="25" opacity="1"></rect></mask><g stroke-opacity="0.9" fill-opacity="0.9" transform="translate(1056.7304732869834 745.058319224192) rotate(0 86.89826698891784 12.841967375352851)"><text x="86.01992797851562" y="17.52" font-family="Virgil, Segoe UI Emoji" font-size="20px" fill="#1e1e1e" text-anchor="middle" style="white-space: pre;" direction="ltr" dominant-baseline="alphabetic">14. transfer(ETH)</text></g><g mask="url(#mask-45Hdv6foFFpn4tz6UBS33)" stroke-linecap="round"><g stroke-opacity="0.9" fill-opacity="0.9" transform="translate(646.0573009809032 240.11342040512136) rotate(0 -0.7367287692372884 89.63775306100615)"><path d="M-0.92 0.42 C-1.25 30.21, -0.91 148.47, -0.95 178.34 M0.8 -0.4 C0.27 29.55, -1.2 149.73, -1.62 179.39" stroke="#1e1e1e" stroke-width="4" fill="none"></path></g><g stroke-opacity="0.9" fill-opacity="0.9" transform="translate(646.0573009809032 240.11342040512136) rotate(0 -0.7367287692372884 89.63775306100615)"><path d="M-9.86 155.79 C-6.05 165.83, -5.14 174.63, -1.62 179.39 M-9.86 155.79 C-6.45 164.15, -4.11 170.98, -1.62 179.39" stroke="#1e1e1e" stroke-width="4" fill="none"></path></g><g stroke-opacity="0.9" fill-opacity="0.9" transform="translate(646.0573009809032 240.11342040512136) rotate(0 -0.7367287692372884 89.63775306100615)"><path d="M7.24 156.02 C4.45 165.84, -1.22 174.55, -1.62 179.39 M7.24 156.02 C4.94 164.32, 1.57 171.07, -1.62 179.39" stroke="#1e1e1e" stroke-width="4" fill="none"></path></g></g><mask id="mask-45Hdv6foFFpn4tz6UBS33"><rect x="0" y="0" fill="#fff" width="747.5307585193777" height="519.3889265271337"></rect><rect x="542.7206424020951" y="317.2511734661275" fill="#000" width="205.19985961914062" height="25" opacity="1"></rect></mask><g stroke-opacity="0.9" fill-opacity="0.9" transform="translate(542.7206424020951 317.2511734661275) rotate(0 102.92599907629256 12.359573918655656)"><text x="102.59992980957031" y="17.52" font-family="Virgil, Segoe UI Emoji" font-size="20px" fill="#1e1e1e" text-anchor="middle" style="white-space: pre;" direction="ltr" dominant-baseline="alphabetic">15. swap(ETH, USDC)</text></g><g mask="url(#mask-h8fJNhUULp5k_sPxrE3A6)" stroke-linecap="round"><g stroke-opacity="0.9" fill-opacity="0.9" transform="translate(551.9665124526364 620.5920938497839) rotate(0 -168.59475357095653 -3.001353163344902)"><path d="M0.35 0.41 C-56.08 -0.42, -281.95 -4.92, -338.04 -5.89 M-0.92 -0.42 C-57.02 -0.96, -279.86 -3.13, -335.78 -4.3" stroke="#1e1e1e" stroke-width="4" fill="none"></path></g><g stroke-opacity="0.9" fill-opacity="0.9" transform="translate(551.9665124526364 620.5920938497839) rotate(0 -168.59475357095653 -3.001353163344902)"><path d="M-312.17 -12.51 C-319.67 -11.04, -328.29 -5.15, -335.78 -4.3 M-312.17 -12.51 C-320.45 -9.76, -327.88 -6.13, -335.78 -4.3" stroke="#1e1e1e" stroke-width="4" fill="none"></path></g><g stroke-opacity="0.9" fill-opacity="0.9" transform="translate(551.9665124526364 620.5920938497839) rotate(0 -168.59475357095653 -3.001353163344902)"><path d="M-312.41 4.59 C-319.7 0.18, -328.24 0.19, -335.78 -4.3 M-312.41 4.59 C-320.69 1.38, -328.02 -0.95, -335.78 -4.3" stroke="#1e1e1e" stroke-width="4" fill="none"></path></g></g><mask id="mask-h8fJNhUULp5k_sPxrE3A6"><rect x="0" y="0" fill="#fff" width="989.1560195945494" height="726.5948001764737"></rect><rect x="285.1818327342189" y="592.590740686439" fill="#000" width="196.37985229492188" height="50" opacity="1"></rect></mask><g stroke-opacity="0.9" fill-opacity="0.9" transform="translate(285.1818327342189 592.590740686439) rotate(0 97.9382027011361 25.25752247162177)"><text x="98.18992614746094" y="17.52" font-family="Virgil, Segoe UI Emoji" font-size="20px" fill="#1e1e1e" text-anchor="middle" style="white-space: pre;" direction="ltr" dominant-baseline="alphabetic">16. transfer(USDC) </text><text x="98.18992614746094" y="42.519999999999996" font-family="Virgil, Segoe UI Emoji" font-size="20px" fill="#1e1e1e" text-anchor="middle" style="white-space: pre;" direction="ltr" dominant-baseline="alphabetic">rewards</text></g></svg>